<?xml version="1.0" encoding="UTF-8"?>
<svg version="1.1" xmlns="http://www.w3.org/2000/svg" width="500" height="500">
<path d="M0 0 C3.29638166 7.45268896 4.6631784 15.09129557 3.5625 23.23828125 C2.79707135 29.22430329 2.79707135 29.22430329 5.20849609 34.54736328 C8.01525316 37.29235581 11.10341597 39.62996939 14.2265625 42 C20.61614212 46.87685229 25.56077725 53.34116588 30 60 C32.28529624 60.47628392 32.28529624 60.47628392 34.9453125 60.44140625 C36.43804687 60.48104492 36.43804687 60.48104492 37.9609375 60.52148438 C39.52714844 60.54178711 39.52714844 60.54178711 41.125 60.5625 C56.65441176 60.82720588 56.65441176 60.82720588 63 64 C62.64738099 74.57857031 58.0790186 83.63432789 50.85546875 91.3203125 C47.0041991 94.80672502 42.78110002 97.28847808 37.96875 99.2109375 C34.11831799 101.53132942 33.31245128 103.71473378 31.5625 107.8125 C28.92074767 113.66622101 26.30475461 117.31914986 21 121 C21.79921875 120.97679687 22.5984375 120.95359375 23.421875 120.9296875 C39.15710769 120.67112734 54.17957046 122.81507742 66 134 C68.95968651 137.49781133 69.59131739 140.58008921 69.421875 145.0703125 C68.68691407 148.43207825 66.6367924 149.9624786 64 152 C62.67827258 152.6893902 61.34686102 153.36110439 60 154 C59.96705531 170.30768486 59.97409289 186.6147894 60.02846622 202.92239475 C60.05278625 210.49469359 60.06412172 218.06659264 60.04467773 225.63891602 C60.02775939 232.24056436 60.03541981 238.84165342 60.07234758 245.44322819 C60.09104217 248.93753653 60.09759581 252.43089947 60.07469368 255.92520332 C60.04956058 259.83027194 60.07931359 263.73389467 60.11352539 267.63891602 C60.0977092 268.79194214 60.08189301 269.94496826 60.06559753 271.13293457 C60.15933837 276.69292796 60.40767334 280.08679515 64.43511963 284.13131714 C65.61077182 285.10304473 66.79757954 286.06159836 68 287 C69.16456833 288.36755157 70.30253679 289.75928678 71.38671875 291.19140625 C71.93263672 291.90876953 72.47855469 292.62613281 73.04101562 293.36523438 C73.58435547 294.09033203 74.12769531 294.81542969 74.6875 295.5625 C75.24244141 296.29146484 75.79738281 297.02042969 76.36914062 297.77148438 C87.20441616 312.08538582 87.20441616 312.08538582 86 322 C83.66126343 326.48257842 80.68142053 327.85446455 76.09765625 329.421875 C68.6844227 331.46500082 61.25102674 331.23731664 53.625 331.25 C52.87579285 331.2530011 52.12658569 331.2560022 51.35467529 331.25909424 C40.33720264 331.28333542 29.56681517 330.62126852 18.625 329.375 C2.91602562 327.62835435 -10.70588566 328.77433598 -26.078125 332.08984375 C-27.37484131 332.36628723 -27.37484131 332.36628723 -28.69775391 332.64831543 C-30.79898801 333.09660777 -32.89956559 333.54797559 -35 334 C-33.83428467 334.01458252 -32.66856934 334.02916504 -31.4675293 334.04418945 C-27.14543878 334.10213117 -22.82387153 334.17936394 -18.50219727 334.26245117 C-16.63118986 334.29572002 -14.76008162 334.32374585 -12.88891602 334.34643555 C-10.20024617 334.37994588 -7.51250202 334.43225865 -4.82421875 334.48828125 C-3.56782845 334.49786613 -3.56782845 334.49786613 -2.28605652 334.50764465 C3.46619291 334.65351124 3.46619291 334.65351124 5.72177124 336.11758423 C7.62439894 338.91953683 7.3740858 341.18712634 7.37231445 344.55102539 C7.37596512 345.21149368 7.37961578 345.87196198 7.38337708 346.55244446 C7.39147989 348.73444368 7.37787708 350.91569971 7.36328125 353.09765625 C7.36276267 354.61315409 7.36328029 356.12865261 7.36479187 357.64414978 C7.36470216 360.81926523 7.354275 363.99412669 7.33618164 367.16918945 C7.313475 371.24386007 7.31295395 375.31816013 7.31969929 379.39287663 C7.32303649 382.52151294 7.31641425 385.65006438 7.30657005 388.77868462 C7.30271489 390.28142287 7.30157114 391.78417056 7.3031559 393.28691292 C7.30352573 395.38424893 7.29093073 397.48110505 7.2746582 399.57836914 C7.27005081 400.772892 7.26544342 401.96741486 7.26069641 403.19813538 C7 406 7 406 5 408 C2.38565063 408.25168228 2.38565063 408.25168228 -0.99755859 408.25396729 C-2.27636902 408.25960693 -3.55517944 408.26524658 -4.8727417 408.27105713 C-6.29797419 408.26716816 -7.72320613 408.2630718 -9.1484375 408.25878906 C-10.64300711 408.26149784 -12.13757538 408.26505813 -13.63214111 408.26940918 C-17.69817612 408.27854899 -21.76410995 408.27498241 -25.83014679 408.26865101 C-30.0786619 408.26359923 -34.32716816 408.26828016 -38.57568359 408.27142334 C-45.7112789 408.27506539 -52.84683285 408.27025764 -59.98242188 408.26074219 C-68.2405828 408.24985717 -76.49864498 408.25338258 -84.75680351 408.264395 C-91.83792913 408.27346108 -98.91902496 408.27475649 -106.0001545 408.26951766 C-110.23341618 408.26639421 -114.46663141 408.26599885 -118.69989014 408.27259064 C-122.67909128 408.27835363 -126.6581647 408.27438652 -130.63735199 408.26280212 C-132.10071348 408.26014991 -133.56408565 408.26093015 -135.02744293 408.26532745 C-137.01910528 408.27076202 -139.01079102 408.26275061 -141.00244141 408.25396729 C-142.11890045 408.25321323 -143.2353595 408.25245918 -144.38565063 408.25168228 C-147 408 -147 408 -149 406 C-149.26069641 403.19813538 -149.26069641 403.19813538 -149.2746582 399.57836914 C-149.27976913 398.91965317 -149.28488007 398.26093719 -149.29014587 397.58226013 C-149.30407195 395.39980033 -149.30308286 393.21765526 -149.30078125 391.03515625 C-149.30466667 389.5206236 -149.30900101 388.00609203 -149.31376648 386.49156189 C-149.32123525 383.31473257 -149.3209328 380.13801436 -149.31567383 376.96118164 C-149.3098796 372.88763342 -149.32680547 368.81453995 -149.3500185 364.74106693 C-149.36474239 361.61239456 -149.36562938 358.48383203 -149.36250877 355.35513115 C-149.36302271 353.85320574 -149.36827404 352.3512743 -149.37832069 350.8493824 C-149.39064173 348.74962864 -149.38392053 346.65076464 -149.37231445 344.55102539 C-149.37294388 343.35570694 -149.3735733 342.16038849 -149.3742218 340.92884827 C-148.95252238 337.62841623 -148.55548444 336.98437932 -146 335 C-142.90611277 334.72081036 -140.01404844 334.62467796 -136.9206543 334.6628418 C-135.98995117 334.6622879 -135.05924805 334.66173401 -134.1003418 334.66116333 C-132.0738335 334.66142361 -130.04731786 334.66832269 -128.02084923 334.68100548 C-124.79248786 334.69939954 -121.56477517 334.69670551 -118.33638 334.6879425 C-109.15489893 334.66616726 -99.97365949 334.67659956 -90.79223633 334.71508789 C-85.17344096 334.73714895 -79.55527675 334.72938275 -73.93650246 334.7046299 C-71.81391106 334.70108197 -69.69126722 334.70844732 -67.56876183 334.72788048 C-53.23647459 334.85632135 -40.90347783 332.94412522 -27.22747612 328.65236473 C-22.52510851 327.27517431 -17.73317557 326.65020817 -12.875 326.125 C-11.52921875 325.95097656 -11.52921875 325.95097656 -10.15625 325.7734375 C1.2274317 324.40348154 12.09399508 325.11616902 23.4375 326.5 C33.88132935 327.66803755 44.18021501 328.32627684 54.6875 328.375 C55.87335693 328.38853516 57.05921387 328.40207031 58.28100586 328.41601562 C66.57657064 328.37335577 73.82155931 327.33992679 81.125 323.25 C83.23652026 321.06705619 83.23652026 321.06705619 83.6875 317.875 C82.02236736 308.48970691 74.9175028 301.1493993 69 294 C67.49687396 292.12750511 65.99677281 290.2525772 64.5 288.375 C63.8296875 287.53710938 63.159375 286.69921875 62.46875 285.8359375 C61.9840625 285.23007812 61.499375 284.62421875 61 284 C60.98541748 284.57967529 60.97083496 285.15935059 60.95581055 285.7565918 C60.88101472 288.40087553 60.78446102 291.04394002 60.6875 293.6875 C60.66494141 294.59951172 60.64238281 295.51152344 60.61914062 296.45117188 C60.36927211 302.69788481 59.5433507 306.4566493 55 311 C53.12755024 311.25299966 53.12755024 311.25299966 50.79826546 311.25726891 C49.91196768 311.2637178 49.0256699 311.27016669 48.11251462 311.276811 C47.13276791 311.2737138 46.1530212 311.2706166 45.14358521 311.26742554 C43.58942188 311.27422221 43.58942188 311.27422221 42.00386131 311.28115618 C38.50920289 311.2938829 35.01469866 311.2921745 31.52001953 311.29052734 C29.02378131 311.29650743 26.52754494 311.30331177 24.03131104 311.31088257 C17.94083318 311.32675964 11.85041666 311.33299325 5.75992383 311.33410732 C0.81053356 311.33505665 -4.13884391 311.33916114 -9.08823013 311.34550858 C-23.1118899 311.36312819 -37.13551901 311.37234637 -51.15918992 311.37084763 C-51.9157051 311.37076772 -52.67222028 311.3706878 -53.45166016 311.37060547 C-54.20909606 311.37052371 -54.96653197 311.37044195 -55.74692048 311.37035771 C-68.02407752 311.3695447 -80.30111191 311.38868424 -92.57823347 311.4168822 C-105.17570311 311.44558826 -117.77311289 311.45942374 -130.37061608 311.45769465 C-137.446612 311.45702993 -144.52247937 311.4625576 -151.59844589 311.48405075 C-158.25175909 311.50413008 -164.90484661 311.50361217 -171.55818939 311.48901749 C-174.00437694 311.48691837 -176.45058116 311.49169533 -178.89673996 311.5037384 C-182.22802371 311.51908071 -185.55835595 311.5099552 -188.88961792 311.49447632 C-190.35254581 311.50990701 -190.35254581 311.50990701 -191.8450278 311.52564943 C-198.37358958 311.45829536 -198.37358958 311.45829536 -201.60183525 309.09644127 C-203.17073071 306.74400234 -203.48869871 305.5845953 -203.45410156 302.78222656 C-203.45364838 301.5514035 -203.45364838 301.5514035 -203.45318604 300.29571533 C-203.43254089 299.41953552 -203.41189575 298.54335571 -203.390625 297.640625 C-203.38496521 296.73624695 -203.37930542 295.8318689 -203.37347412 294.90008545 C-203.35111248 292.01618147 -203.30091686 289.13352739 -203.25 286.25 C-203.22993471 284.29298671 -203.21168399 282.33595392 -203.1953125 280.37890625 C-203.15124839 275.58545711 -203.08222252 270.79294035 -203 266 C-203.66 266.33 -204.32 266.66 -205 267 C-210.17805745 267.86483412 -214.21727979 267.32033614 -218.75 264.625 C-227.39608946 258.08771284 -228.84165413 248.49788486 -230.37597656 238.34277344 C-231.67692107 228.3666934 -231.49374933 218.29156013 -231.4375 208.25 C-231.43343643 206.54855835 -231.43343643 206.54855835 -231.42929077 204.81274414 C-231.27149879 160.99955363 -230.80667053 96.80038311 -199 63 C-184.47871072 50.35960195 -170.56128373 48.07708385 -151.83349609 48.80029297 C-132.00488878 50.19782879 -111.99658314 60.74741918 -96.68359375 73.01953125 C-90.94754386 77.25268597 -86.97075637 78.57137347 -80 78 C-76.75047653 76.30799267 -76.75047653 76.30799267 -76.2265625 73.1640625 C-76.02804688 71.99617188 -75.82953125 70.82828125 -75.625 69.625 C-72.99868705 56.52023436 -68.45327203 46.59732208 -57.72265625 38.22265625 C-51.6669265 34.2627531 -45.08618248 32.17057591 -38.22265625 30.078125 C-34.90136752 29.1235143 -34.90136752 29.1235143 -32 27 C-31.05547911 24.888954 -31.05547911 24.888954 -30.3125 22.4375 C-26.45242284 12.30479746 -18.19697192 5.23644316 -8.4375 0.84765625 C-5.52133891 -0.16645746 -3.06537743 -0.14257569 0 0 Z M-186 164 C-186 206.57 -186 249.14 -186 293 C-110.76 293 -35.52 293 42 293 C42 250.43 42 207.86 42 164 C19.56 164 -2.88 164 -26 164 C-26.99 169.94 -27.98 175.88 -29 182 C-30.4296875 187.046875 -30.4296875 187.046875 -31.875 190.75 C-32.10574219 191.38164062 -32.33648437 192.01328125 -32.57421875 192.6640625 C-34.82499651 198.46553245 -37.80812914 202.73545912 -43.25 205.875 C-49.13057246 207.63917174 -54.3346425 208.17799469 -59.9375 205.3125 C-63.18511588 202.86021862 -64.17979186 201.91877222 -65 198 C-65.6820009 191.97565871 -64.14216874 187.99986986 -61 183 C-60.2575 182.154375 -59.515 181.30875 -58.75 180.4375 C-56.30189968 177.02764598 -56.36086856 175.11884703 -57 171 C-58.15089031 168.0659942 -59.54521877 165.99559684 -62 164 C-65.97577184 162.9709891 -69.86424385 163.11533429 -73.95043945 163.20532227 C-75.18015315 163.20447852 -76.40986685 163.20363478 -77.6768446 163.20276546 C-80.99689194 163.20712358 -84.31386145 163.24167668 -87.63335419 163.29103851 C-90.75043296 163.33097596 -93.86743707 163.3327841 -96.98474121 163.33776855 C-106.09422824 163.37446437 -115.2033867 163.4721932 -124.3125 163.5625 C-144.669375 163.706875 -165.02625 163.85125 -186 164 Z M-145 349 C-145 350.32 -145 351.64 -145 353 C-142.36 353 -139.72 353 -137 353 C-137 351.68 -137 350.36 -137 349 C-139.64 349 -142.28 349 -145 349 Z M-134 349 C-134 350.32 -134 351.64 -134 353 C-131.36 353 -128.72 353 -126 353 C-126 351.68 -126 350.36 -126 349 C-128.64 349 -131.28 349 -134 349 Z M-123 349 C-123 350.32 -123 351.64 -123 353 C-120.36 353 -117.72 353 -115 353 C-115 351.68 -115 350.36 -115 349 C-117.64 349 -120.28 349 -123 349 Z M-112 349 C-112 350.32 -112 351.64 -112 353 C-109.36 353 -106.72 353 -104 353 C-104 351.68 -104 350.36 -104 349 C-106.64 349 -109.28 349 -112 349 Z M-101 349 C-101 350.32 -101 351.64 -101 353 C-98.36 353 -95.72 353 -93 353 C-93.33 351.68 -93.66 350.36 -94 349 C-96.31 349 -98.62 349 -101 349 Z M-91 349 C-91 350.32 -91 351.64 -91 353 C-88.36 353 -85.72 353 -83 353 C-83 351.68 -83 350.36 -83 349 C-85.64 349 -88.28 349 -91 349 Z M-80 349 C-80 350.32 -80 351.64 -80 353 C-77.69 353 -75.38 353 -73 353 C-73 351.68 -73 350.36 -73 349 C-75.31 349 -77.62 349 -80 349 Z M-70 349 C-70 350.32 -70 351.64 -70 353 C-67.36 353 -64.72 353 -62 353 C-62 351.68 -62 350.36 -62 349 C-64.64 349 -67.28 349 -70 349 Z M-59 349 C-59 350.32 -59 351.64 -59 353 C-56.36 353 -53.72 353 -51 353 C-51 351.68 -51 350.36 -51 349 C-53.64 349 -56.28 349 -59 349 Z M-48 349 C-48 350.32 -48 351.64 -48 353 C-45.36 353 -42.72 353 -40 353 C-40.33 351.68 -40.66 350.36 -41 349 C-43.31 349 -45.62 349 -48 349 Z M-37 349 C-37.33 350.32 -37.66 351.64 -38 353 C-35.36 353 -32.72 353 -30 353 C-30 351.68 -30 350.36 -30 349 C-32.31 349 -34.62 349 -37 349 Z M-27 349 C-27 350.32 -27 351.64 -27 353 C-24.36 353 -21.72 353 -19 353 C-19 351.68 -19 350.36 -19 349 C-21.64 349 -24.28 349 -27 349 Z M-16 349 C-16 350.32 -16 351.64 -16 353 C-13.36 353 -10.72 353 -8 353 C-8 351.68 -8 350.36 -8 349 C-10.64 349 -13.28 349 -16 349 Z M-5 349 C-5.33 350.32 -5.66 351.64 -6 353 C-3.36 353 -0.72 353 2 353 C2 351.68 2 350.36 2 349 C-0.31 349 -2.62 349 -5 349 Z M-145 356 C-145 358.31 -145 360.62 -145 363 C-142.36 363 -139.72 363 -137 363 C-137 360.69 -137 358.38 -137 356 C-139.64 356 -142.28 356 -145 356 Z M-135 356 C-135 358.31 -135 360.62 -135 363 C-132.36 363 -129.72 363 -127 363 C-127 360.69 -127 358.38 -127 356 C-129.64 356 -132.28 356 -135 356 Z M-124 356 C-124 358.31 -124 360.62 -124 363 C-121.36 363 -118.72 363 -116 363 C-116 360.69 -116 358.38 -116 356 C-118.64 356 -121.28 356 -124 356 Z M-114 356 C-114 358.31 -114 360.62 -114 363 C-111.36 363 -108.72 363 -106 363 C-106 360.69 -106 358.38 -106 356 C-108.64 356 -111.28 356 -114 356 Z M-104 356 C-104 358.31 -104 360.62 -104 363 C-101.36 363 -98.72 363 -96 363 C-96 360.69 -96 358.38 -96 356 C-98.64 356 -101.28 356 -104 356 Z M-93 356 C-93 358.31 -93 360.62 -93 363 C-90.36 363 -87.72 363 -85 363 C-85 360.69 -85 358.38 -85 356 C-87.64 356 -90.28 356 -93 356 Z M-83 356 C-83 358.31 -83 360.62 -83 363 C-80.36 363 -77.72 363 -75 363 C-75 360.69 -75 358.38 -75 356 C-77.64 356 -80.28 356 -83 356 Z M-72 356 C-72 358.31 -72 360.62 -72 363 C-69.36 363 -66.72 363 -64 363 C-64 360.69 -64 358.38 -64 356 C-66.64 356 -69.28 356 -72 356 Z M-62 356 C-62 358.31 -62 360.62 -62 363 C-59.36 363 -56.72 363 -54 363 C-54 360.69 -54 358.38 -54 356 C-56.64 356 -59.28 356 -62 356 Z M-51 356 C-51 358.31 -51 360.62 -51 363 C-48.69 363 -46.38 363 -44 363 C-44 360.69 -44 358.38 -44 356 C-46.31 356 -48.62 356 -51 356 Z M-41 356 C-41 358.31 -41 360.62 -41 363 C-38.36 363 -35.72 363 -33 363 C-33 360.69 -33 358.38 -33 356 C-35.64 356 -38.28 356 -41 356 Z M-31 356 C-31 358.31 -31 360.62 -31 363 C-28.36 363 -25.72 363 -23 363 C-23 360.69 -23 358.38 -23 356 C-25.64 356 -28.28 356 -31 356 Z M-20 356 C-20 358.31 -20 360.62 -20 363 C-17.36 363 -14.72 363 -12 363 C-12 360.69 -12 358.38 -12 356 C-14.64 356 -17.28 356 -20 356 Z M-10 356 C-10 358.31 -10 360.62 -10 363 C-5.71 363 -1.42 363 3 363 C3 360.69 3 358.38 3 356 C-1.29 356 -5.58 356 -10 356 Z M-145 366 C-145.04241723 368.33294775 -145.04092937 370.66702567 -145 373 C-143.94399622 374.27870382 -143.94399622 374.27870382 -141.53125 374.1328125 C-140.5309375 374.13023437 -139.530625 374.12765625 -138.5 374.125 C-136.99953125 374.12886719 -136.99953125 374.12886719 -135.46875 374.1328125 C-133.05600378 374.27870382 -133.05600378 374.27870382 -132 373 C-131.95907063 370.66702567 -131.95758277 368.33294775 -132 366 C-136.29 366 -140.58 366 -145 366 Z M-130 366 C-130.04241723 368.33294775 -130.04092937 370.66702567 -130 373 C-128.88163776 374.34404775 -128.88163776 374.34404775 -126 374.125 C-123.11836224 374.34404775 -123.11836224 374.34404775 -122 373 C-121.95907063 370.66702567 -121.95758277 368.33294775 -122 366 C-124.64 366 -127.28 366 -130 366 Z M-119 366 C-119 368.64 -119 371.28 -119 374 C-116.69 374 -114.38 374 -112 374 C-110.64560332 371.29120665 -110.93498549 368.99066732 -111 366 C-113.64 366 -116.28 366 -119 366 Z M-109 366 C-109.04241723 368.33294775 -109.04092937 370.66702567 -109 373 C-107.88163776 374.34404775 -107.88163776 374.34404775 -105 374.125 C-102.11836224 374.34404775 -102.11836224 374.34404775 -101 373 C-100.95907063 370.66702567 -100.95758277 368.33294775 -101 366 C-103.64 366 -106.28 366 -109 366 Z M-99 366 C-99.04241723 368.33294775 -99.04092937 370.66702567 -99 373 C-97.81575674 374.41577477 -97.81575674 374.41577477 -94.4375 374.0625 C-92.7359375 374.0315625 -92.7359375 374.0315625 -91 374 C-91 371.36 -91 368.72 -91 366 C-93.64 366 -96.28 366 -99 366 Z M-88 366 C-88.04241723 368.33294775 -88.04092937 370.66702567 -88 373 C-86.88163776 374.34404775 -86.88163776 374.34404775 -84 374.125 C-81.11836224 374.34404775 -81.11836224 374.34404775 -80 373 C-79.95907063 370.66702567 -79.95758277 368.33294775 -80 366 C-82.64 366 -85.28 366 -88 366 Z M-78 366 C-78.04241723 368.33294775 -78.04092937 370.66702567 -78 373 C-76.88163776 374.34404775 -76.88163776 374.34404775 -74 374.125 C-71.11836224 374.34404775 -71.11836224 374.34404775 -70 373 C-69.95907063 370.66702567 -69.95758277 368.33294775 -70 366 C-72.64 366 -75.28 366 -78 366 Z M-67 366 C-67 368.64 -67 371.28 -67 374 C-64.66705225 374.04241723 -62.33297433 374.04092937 -60 374 C-58.58422523 372.81575674 -58.58422523 372.81575674 -58.9375 369.4375 C-58.958125 368.303125 -58.97875 367.16875 -59 366 C-61.64 366 -64.28 366 -67 366 Z M-57 366 C-57.04241723 368.33294775 -57.04092937 370.66702567 -57 373 C-55.88163776 374.34404775 -55.88163776 374.34404775 -53 374.125 C-50.11836224 374.34404775 -50.11836224 374.34404775 -49 373 C-48.95907063 370.66702567 -48.95758277 368.33294775 -49 366 C-51.64 366 -54.28 366 -57 366 Z M-47 367 C-47.16666667 370 -47.16666667 370 -47 373 C-45.81575674 374.41577477 -45.81575674 374.41577477 -42.4375 374.0625 C-40.7359375 374.0315625 -40.7359375 374.0315625 -39 374 C-39 371.36 -39 368.72 -39 366 C-43.32320086 365.49633499 -43.32320086 365.49633499 -47 367 Z M-36 366 C-36.04241723 368.33294775 -36.04092937 370.66702567 -36 373 C-34.88163776 374.34404775 -34.88163776 374.34404775 -32 374.125 C-29.11836224 374.34404775 -29.11836224 374.34404775 -28 373 C-27.95907063 370.66702567 -27.95758277 368.33294775 -28 366 C-30.64 366 -33.28 366 -36 366 Z M-26 366 C-26.04241723 368.33294775 -26.04092937 370.66702567 -26 373 C-24.88163776 374.34404775 -24.88163776 374.34404775 -22 374.125 C-19.11836224 374.34404775 -19.11836224 374.34404775 -18 373 C-17.95907063 370.66702567 -17.95758277 368.33294775 -18 366 C-20.64 366 -23.28 366 -26 366 Z M-15 366 C-15 368.64 -15 371.28 -15 374 C-12.66705225 374.04241723 -10.33297433 374.04092937 -8 374 C-6.58422523 372.81575674 -6.58422523 372.81575674 -6.9375 369.4375 C-6.958125 368.303125 -6.97875 367.16875 -7 366 C-9.64 366 -12.28 366 -15 366 Z M-5 366 C-5.04241723 368.33294775 -5.04092937 370.66702567 -5 373 C-3.88163776 374.34404775 -3.88163776 374.34404775 -1 374.125 C1.88163776 374.34404775 1.88163776 374.34404775 3 373 C3.04092937 370.66702567 3.04241723 368.33294775 3 366 C0.36 366 -2.28 366 -5 366 Z M-145 376 C-145 378.31 -145 380.62 -145 383 C-143.86687244 384.35860893 -143.86687244 384.35860893 -140.875 384.1328125 C-139.59625 384.13023437 -138.3175 384.12765625 -137 384.125 C-135.72125 384.12757813 -134.4425 384.13015625 -133.125 384.1328125 C-130.13312756 384.35860893 -130.13312756 384.35860893 -129 383 C-129 380.69 -129 378.38 -129 376 C-134.28 376 -139.56 376 -145 376 Z M-127 376 C-127 378.64 -127 381.28 -127 384 C-124.36 384 -121.72 384 -119 384 C-119 381.36 -119 378.72 -119 376 C-121.64 376 -124.28 376 -127 376 Z M-117 376 C-117.04241723 378.33294775 -117.04092937 380.66702567 -117 383 C-115.81575674 384.41577477 -115.81575674 384.41577477 -112.4375 384.0625 C-110.7359375 384.0315625 -110.7359375 384.0315625 -109 384 C-109 381.36 -109 378.72 -109 376 C-111.64 376 -114.28 376 -117 376 Z M-106 376 C-106 378.64 -106 381.28 -106 384 C-103.66705225 384.04241723 -101.33297433 384.04092937 -99 384 C-97.58422523 382.81575674 -97.58422523 382.81575674 -97.9375 379.4375 C-97.958125 378.303125 -97.97875 377.16875 -98 376 C-100.64 376 -103.28 376 -106 376 Z M-96 376 C-96 378.64 -96 381.28 -96 384 C-93.36 384 -90.72 384 -88 384 C-88 381.36 -88 378.72 -88 376 C-90.64 376 -93.28 376 -96 376 Z M-85 376 C-85 378.64 -85 381.28 -85 384 C-82.66705225 384.04241723 -80.33297433 384.04092937 -78 384 C-76.58422523 382.81575674 -76.58422523 382.81575674 -76.9375 379.4375 C-76.958125 378.303125 -76.97875 377.16875 -77 376 C-79.64 376 -82.28 376 -85 376 Z M-75 376 C-75 378.64 -75 381.28 -75 384 C-72.36 384 -69.72 384 -67 384 C-67 381.36 -67 378.72 -67 376 C-69.64 376 -72.28 376 -75 376 Z M-65 376 C-65.04241723 378.33294775 -65.04092937 380.66702567 -65 383 C-63.81575674 384.41577477 -63.81575674 384.41577477 -60.4375 384.0625 C-58.7359375 384.0315625 -58.7359375 384.0315625 -57 384 C-57 381.36 -57 378.72 -57 376 C-59.64 376 -62.28 376 -65 376 Z M-54 376 C-54 378.64 -54 381.28 -54 384 C-51.66705225 384.04241723 -49.33297433 384.04092937 -47 384 C-45.58422523 382.81575674 -45.58422523 382.81575674 -45.9375 379.4375 C-45.958125 378.303125 -45.97875 377.16875 -46 376 C-48.64 376 -51.28 376 -54 376 Z M-44 376 C-44.04241723 378.33294775 -44.04092937 380.66702567 -44 383 C-42.81575674 384.41577477 -42.81575674 384.41577477 -39.4375 384.0625 C-37.7359375 384.0315625 -37.7359375 384.0315625 -36 384 C-36 381.36 -36 378.72 -36 376 C-38.64 376 -41.28 376 -44 376 Z M-33 376 C-33 378.64 -33 381.28 -33 384 C-30.66705225 384.04241723 -28.33297433 384.04092937 -26 384 C-24.58422523 382.81575674 -24.58422523 382.81575674 -24.9375 379.4375 C-24.958125 378.303125 -24.97875 377.16875 -25 376 C-27.64 376 -30.28 376 -33 376 Z M-23 376 C-23 378.64 -23 381.28 -23 384 C-20.36 384 -17.72 384 -15 384 C-15 381.36 -15 378.72 -15 376 C-17.64 376 -20.28 376 -23 376 Z M-12 376 C-12 378.64 -12 381.28 -12 384 C-9.68756208 384.02685412 -7.3750373 384.04632841 -5.0625 384.0625 C-3.13083984 384.07990234 -3.13083984 384.07990234 -1.16015625 384.09765625 C1.86298403 384.36532549 1.86298403 384.36532549 3 383 C3 380.69 3 378.38 3 376 C-1.95 376 -6.9 376 -12 376 Z M-145 386 C-145 388.31 -145 390.62 -145 393 C-143.0604886 394.9395114 -140.1879288 394.13256629 -137.61132812 394.13671875 C-136.77021484 394.13285156 -135.92910156 394.12898438 -135.0625 394.125 C-134.22525391 394.12886719 -133.38800781 394.13273437 -132.52539062 394.13671875 C-131.72423828 394.13542969 -130.92308594 394.13414062 -130.09765625 394.1328125 C-128.99176147 394.13112061 -128.99176147 394.13112061 -127.86352539 394.12939453 C-125.90668399 394.11341854 -125.90668399 394.11341854 -124 393 C-124 390.69 -124 388.38 -124 386 C-130.93 386 -137.86 386 -145 386 Z M-122 386 C-122.04241723 388.33294775 -122.04092937 390.66702567 -122 393 C-120.81575674 394.41577477 -120.81575674 394.41577477 -117.4375 394.0625 C-115.7359375 394.0315625 -115.7359375 394.0315625 -114 394 C-114 391.36 -114 388.72 -114 386 C-116.64 386 -119.28 386 -122 386 Z M-111 386 C-111.04241723 388.33294775 -111.04092937 390.66702567 -111 393 C-109.88163776 394.34404775 -109.88163776 394.34404775 -107 394.125 C-104.11836224 394.34404775 -104.11836224 394.34404775 -103 393 C-102.95907063 390.66702567 -102.95758277 388.33294775 -103 386 C-105.64 386 -108.28 386 -111 386 Z M-101 386 C-101.04241723 388.33294775 -101.04092937 390.66702567 -101 393 C-99.88163776 394.34404775 -99.88163776 394.34404775 -97 394.125 C-94.11836224 394.34404775 -94.11836224 394.34404775 -93 393 C-92.95907063 390.66702567 -92.95758277 388.33294775 -93 386 C-95.64 386 -98.28 386 -101 386 Z M-90 386 C-90 388.64 -90 391.28 -90 394 C-87.66705225 394.04241723 -85.33297433 394.04092937 -83 394 C-81.58422523 392.81575674 -81.58422523 392.81575674 -81.9375 389.4375 C-81.958125 388.303125 -81.97875 387.16875 -82 386 C-84.64 386 -87.28 386 -90 386 Z M-80 386 C-80.04241723 388.33294775 -80.04092937 390.66702567 -80 393 C-78.88163776 394.34404775 -78.88163776 394.34404775 -76 394.125 C-73.11836224 394.34404775 -73.11836224 394.34404775 -72 393 C-71.95907063 390.66702567 -71.95758277 388.33294775 -72 386 C-74.64 386 -77.28 386 -80 386 Z M-70 386 C-70.04241723 388.33294775 -70.04092937 390.66702567 -70 393 C-68.81575674 394.41577477 -68.81575674 394.41577477 -65.4375 394.0625 C-63.7359375 394.0315625 -63.7359375 394.0315625 -62 394 C-62 391.36 -62 388.72 -62 386 C-64.64 386 -67.28 386 -70 386 Z M-59 386 C-59.04241723 388.33294775 -59.04092937 390.66702567 -59 393 C-57.88163776 394.34404775 -57.88163776 394.34404775 -55 394.125 C-52.11836224 394.34404775 -52.11836224 394.34404775 -51 393 C-50.95907063 390.66702567 -50.95758277 388.33294775 -51 386 C-53.64 386 -56.28 386 -59 386 Z M-49 386 C-49.04241723 388.33294775 -49.04092937 390.66702567 -49 393 C-47.88163776 394.34404775 -47.88163776 394.34404775 -45 394.125 C-42.11836224 394.34404775 -42.11836224 394.34404775 -41 393 C-40.95907063 390.66702567 -40.95758277 388.33294775 -41 386 C-43.64 386 -46.28 386 -49 386 Z M-38 386 C-38 388.64 -38 391.28 -38 394 C-35.66705225 394.04241723 -33.33297433 394.04092937 -31 394 C-29.58422523 392.81575674 -29.58422523 392.81575674 -29.9375 389.4375 C-29.958125 388.303125 -29.97875 387.16875 -30 386 C-32.64 386 -35.28 386 -38 386 Z M-28 386 C-28.04241723 388.33294775 -28.04092937 390.66702567 -28 393 C-26.88163776 394.34404775 -26.88163776 394.34404775 -24 394.125 C-21.11836224 394.34404775 -21.11836224 394.34404775 -20 393 C-19.95907063 390.66702567 -19.95758277 388.33294775 -20 386 C-22.64 386 -25.28 386 -28 386 Z M-17 386 C-17 388.31 -17 390.62 -17 393 C-15.1144747 394.8855253 -12.42231169 394.13246689 -9.91796875 394.13671875 C-9.12003906 394.13285156 -8.32210937 394.12898438 -7.5 394.125 C-6.70207031 394.12886719 -5.90414062 394.13273437 -5.08203125 394.13671875 C-1.2316068 394.5089961 -1.2316068 394.5089961 2 393 C2 390.69 2 388.38 2 386 C-4.27 386 -10.54 386 -17 386 Z M-145 396 C-145 398.64 -145 401.28 -145 404 C-142.36 404 -139.72 404 -137 404 C-137 401.36 -137 398.72 -137 396 C-139.64 396 -142.28 396 -145 396 Z M-135 396 C-135 398.64 -135 401.28 -135 404 C-132.36 404 -129.72 404 -127 404 C-127 401.36 -127 398.72 -127 396 C-129.64 396 -132.28 396 -135 396 Z M-124 396 C-124 398.64 -124 401.28 -124 404 C-121.36 404 -118.72 404 -116 404 C-116 401.36 -116 398.72 -116 396 C-118.64 396 -121.28 396 -124 396 Z M-114 396 C-114 398.64 -114 401.28 -114 404 C-110.7 404 -107.4 404 -104 404 C-104 401.36 -104 398.72 -104 396 C-107.3 396 -110.6 396 -114 396 Z M-101 397 C-101.16666667 400.5 -101.16666667 400.5 -101 404 C-99.41318011 405.58681989 -97.78751654 405.12728536 -95.58789062 405.12939453 C-94.18138245 405.13412277 -94.18138245 405.13412277 -92.74645996 405.13894653 C-91.72669067 405.1369223 -90.70692139 405.13489807 -89.65625 405.1328125 C-88.61682251 405.13376923 -87.57739502 405.13472595 -86.50646973 405.13571167 C-84.30395446 405.13639363 -82.10143721 405.13453827 -79.89892578 405.13037109 C-76.51460281 405.12502308 -73.13041256 405.13031559 -69.74609375 405.13671875 C-67.61197887 405.13605797 -65.47786408 405.13477681 -63.34375 405.1328125 C-62.32398071 405.13483673 -61.30421143 405.13686096 -60.25354004 405.13894653 C-59.31586792 405.13579437 -58.3781958 405.13264221 -57.41210938 405.12939453 C-56.58239624 405.12859894 -55.75268311 405.12780334 -54.89782715 405.12698364 C-52.98898476 405.20842552 -52.98898476 405.20842552 -52 404 C-51.92851801 402.64756083 -51.91600546 401.29165633 -51.9375 399.9375 C-51.958125 398.638125 -51.97875 397.33875 -52 396 C-58.81761894 395.9747311 -65.63522589 395.95716756 -72.45288086 395.94506836 C-74.77417451 395.94002667 -77.09546497 395.93319349 -79.41674805 395.92456055 C-82.74528795 395.91248775 -86.07378602 395.90677021 -89.40234375 395.90234375 C-90.44712387 395.89718246 -91.49190399 395.89202118 -92.56834412 395.88670349 C-94.00972496 395.88659019 -94.00972496 395.88659019 -95.48022461 395.88647461 C-96.33071884 395.884254 -97.18121307 395.88203339 -98.05747986 395.87974548 C-100.00588545 395.78519716 -100.00588545 395.78519716 -101 397 Z M-49 396 C-49 398.64 -49 401.28 -49 404 C-45.7 404 -42.4 404 -39 404 C-39 401.36 -39 398.72 -39 396 C-42.3 396 -45.6 396 -49 396 Z M-36 396 C-36 398.64 -36 401.28 -36 404 C-33.36 404 -30.72 404 -28 404 C-28 401.36 -28 398.72 -28 396 C-30.64 396 -33.28 396 -36 396 Z M-15 396 C-15 397.32 -15 398.64 -15 400 C-12.69 400 -10.38 400 -8 400 C-8 398.68 -8 397.36 -8 396 C-10.31 396 -12.62 396 -15 396 Z M-26 401 C-26 402.32 -26 403.64 -26 405 C-23.36 405 -20.72 405 -18 405 C-18 403.68 -18 402.36 -18 401 C-20.64 401 -23.28 401 -26 401 Z M-15 401 C-15 402.32 -15 403.64 -15 405 C-12.69 405 -10.38 405 -8 405 C-8 403.68 -8 402.36 -8 401 C-10.31 401 -12.62 401 -15 401 Z M-5 401 C-5 402.32 -5 403.64 -5 405 C-2.69 405 -0.38 405 2 405 C2.33 403.68 2.66 402.36 3 401 C0.36 401 -2.28 401 -5 401 Z " fill="#000000" transform="translate(317,57)"/>
<path d="M0 0 C3.60620451 1.83625689 5.89155057 3.52105845 8 7 C9.67983889 12.27597067 9.22504984 17.89843907 9.25 23.375 C9.270625 24.4990625 9.29125 25.623125 9.3125 26.78125 C9.36169048 37.18503715 9.36169048 37.18503715 6 42 C1.01923449 46.49483717 -1.96447163 47.29983058 -8.52734375 47.21484375 C-13.07695431 46.81953793 -15.20354075 44.84070698 -18.25 41.625 C-21.90949943 36.13575086 -21.21615899 29.56229936 -21.25 23.1875 C-21.270625 22.22779297 -21.29125 21.26808594 -21.3125 20.27929688 C-21.35175485 13.09075227 -20.81219452 6.88430207 -15.5625 1.5 C-10.44370515 -0.65528204 -5.48017008 -0.81870643 0 0 Z M-6 12 C-6.33 12.66 -6.66 13.32 -7 14 C-6.34 14 -5.68 14 -5 14 C-5.33 13.34 -5.66 12.68 -6 12 Z " fill="#000000" transform="translate(362,407)"/>
<path d="M0 0 C1.23556641 0.01740234 1.23556641 0.01740234 2.49609375 0.03515625 C3.32238281 0.04417969 4.14867187 0.05320312 5 0.0625 C5.63808594 0.07410156 6.27617187 0.08570313 6.93359375 0.09765625 C5.6328125 1.5859375 5.6328125 1.5859375 3.93359375 3.09765625 C0.74609375 3.28515625 0.74609375 3.28515625 -2.06640625 3.09765625 C-2.06640625 5.40765625 -2.06640625 7.71765625 -2.06640625 10.09765625 C-0.41640625 10.09765625 1.23359375 10.09765625 2.93359375 10.09765625 C2.98257813 10.79632813 3.0315625 11.495 3.08203125 12.21484375 C3.15679687 13.12492187 3.2315625 14.035 3.30859375 14.97265625 C3.41300781 16.33003906 3.41300781 16.33003906 3.51953125 17.71484375 C3.72927507 20.27707528 3.72927507 20.27707528 5.93359375 22.09765625 C6.12890625 24.26171875 6.12890625 24.26171875 6.05859375 26.72265625 C6.04054687 27.53992188 6.0225 28.3571875 6.00390625 29.19921875 C5.98070312 29.82570313 5.9575 30.4521875 5.93359375 31.09765625 C8.24359375 30.76765625 10.55359375 30.43765625 12.93359375 30.09765625 C13.59359375 27.78765625 14.25359375 25.47765625 14.93359375 23.09765625 C15.26359375 23.09765625 15.59359375 23.09765625 15.93359375 23.09765625 C15.93359375 25.73765625 15.93359375 28.37765625 15.93359375 31.09765625 C22.04449858 31.1971104 27.90762802 31.16893905 33.93359375 30.09765625 C34.92359375 25.64265625 34.92359375 25.64265625 35.93359375 21.09765625 C37.58359375 20.76765625 39.23359375 20.43765625 40.93359375 20.09765625 C41.26359375 17.78765625 41.59359375 15.47765625 41.93359375 13.09765625 C40.94359375 12.76765625 39.95359375 12.43765625 38.93359375 12.09765625 C42.36879855 9.80751972 43.91892475 9.91922652 47.93359375 10.09765625 C47.93359375 8.11765625 47.93359375 6.13765625 47.93359375 4.09765625 C48.59359375 4.09765625 49.25359375 4.09765625 49.93359375 4.09765625 C49.93359375 6.07765625 49.93359375 8.05765625 49.93359375 10.09765625 C51.04734375 10.03578125 52.16109375 9.97390625 53.30859375 9.91015625 C55.10296875 10.00296875 55.10296875 10.00296875 56.93359375 10.09765625 C57.92359375 11.58265625 57.92359375 11.58265625 58.93359375 13.09765625 C57.61359375 13.09765625 56.29359375 13.09765625 54.93359375 13.09765625 C54.93359375 15.40765625 54.93359375 17.71765625 54.93359375 20.09765625 C54.27359375 20.09765625 53.61359375 20.09765625 52.93359375 20.09765625 C52.93359375 17.78765625 52.93359375 15.47765625 52.93359375 13.09765625 C50.29359375 13.09765625 47.65359375 13.09765625 44.93359375 13.09765625 C44.93359375 15.73765625 44.93359375 18.37765625 44.93359375 21.09765625 C47.24359375 21.09765625 49.55359375 21.09765625 51.93359375 21.09765625 C52.42859375 22.08765625 52.42859375 22.08765625 52.93359375 23.09765625 C50.95359375 23.09765625 48.97359375 23.09765625 46.93359375 23.09765625 C47.42859375 26.56265625 47.42859375 26.56265625 47.93359375 30.09765625 C49.63515625 30.28328125 49.63515625 30.28328125 51.37109375 30.47265625 C53.13453125 30.78203125 53.13453125 30.78203125 54.93359375 31.09765625 C55.42859375 32.08765625 55.42859375 32.08765625 55.93359375 33.09765625 C54.94359375 33.09765625 53.95359375 33.09765625 52.93359375 33.09765625 C53.42859375 36.56265625 53.42859375 36.56265625 53.93359375 40.09765625 C55.91359375 40.09765625 57.89359375 40.09765625 59.93359375 40.09765625 C60.26359375 37.78765625 60.59359375 35.47765625 60.93359375 33.09765625 C59.61359375 33.09765625 58.29359375 33.09765625 56.93359375 33.09765625 C56.93359375 32.43765625 56.93359375 31.77765625 56.93359375 31.09765625 C60.89359375 30.60265625 60.89359375 30.60265625 64.93359375 30.09765625 C65.26359375 28.11765625 65.59359375 26.13765625 65.93359375 24.09765625 C66.59359375 24.42765625 67.25359375 24.75765625 67.93359375 25.09765625 C68.55859375 27.66015625 68.55859375 27.66015625 68.93359375 30.09765625 C74.86969041 30.99081894 80.00334572 31.06806047 85.93359375 30.09765625 C86.26359375 28.11765625 86.59359375 26.13765625 86.93359375 24.09765625 C87.59359375 24.09765625 88.25359375 24.09765625 88.93359375 24.09765625 C88.93359375 26.40765625 88.93359375 28.71765625 88.93359375 31.09765625 C90.04734375 31.05640625 91.16109375 31.01515625 92.30859375 30.97265625 C95.93359375 31.09765625 95.93359375 31.09765625 97.93359375 33.09765625 C92.91063371 34.22782226 88.95485301 33.87681717 83.93359375 33.09765625 C83.93359375 35.73765625 83.93359375 38.37765625 83.93359375 41.09765625 C81.93359375 39.09765625 81.93359375 39.09765625 81.80859375 35.97265625 C81.84984375 35.02390625 81.89109375 34.07515625 81.93359375 33.09765625 C79.29359375 33.09765625 76.65359375 33.09765625 73.93359375 33.09765625 C73.93359375 35.73765625 73.93359375 38.37765625 73.93359375 41.09765625 C75.91359375 41.59265625 75.91359375 41.59265625 77.93359375 42.09765625 C76.61359375 43.08765625 75.29359375 44.07765625 73.93359375 45.09765625 C73.60359375 44.43765625 73.27359375 43.77765625 72.93359375 43.09765625 C69.63359375 43.09765625 66.33359375 43.09765625 62.93359375 43.09765625 C62.74796875 44.76828125 62.74796875 44.76828125 62.55859375 46.47265625 C61.93359375 50.09765625 61.93359375 50.09765625 59.93359375 52.09765625 C59.93359375 49.12765625 59.93359375 46.15765625 59.93359375 43.09765625 C59.29989868 43.11240494 58.66620361 43.12715363 58.01330566 43.14234924 C51.39443059 43.29524013 44.77541115 43.43988751 38.15625 43.57983398 C35.68875591 43.63307412 33.22130564 43.68838828 30.75390625 43.74584961 C27.19931483 43.82826453 23.64463058 43.90312309 20.08984375 43.9765625 C18.99369751 44.00359756 17.89755127 44.03063263 16.76818848 44.05848694 C11.03351138 44.16924953 5.60280282 43.98571273 -0.06640625 43.09765625 C-0.06640625 42.76765625 -0.06640625 42.43765625 -0.06640625 42.09765625 C2.57359375 41.76765625 5.21359375 41.43765625 7.93359375 41.09765625 C8.26359375 38.45765625 8.59359375 35.81765625 8.93359375 33.09765625 C2.66359375 33.09765625 -3.60640625 33.09765625 -10.06640625 33.09765625 C-10.06640625 35.40765625 -10.06640625 37.71765625 -10.06640625 40.09765625 C-10.72640625 40.09765625 -11.38640625 40.09765625 -12.06640625 40.09765625 C-12.06640625 37.78765625 -12.06640625 35.47765625 -12.06640625 33.09765625 C-19.32640625 33.09765625 -26.58640625 33.09765625 -34.06640625 33.09765625 C-33.73640625 32.43765625 -33.40640625 31.77765625 -33.06640625 31.09765625 C-30.51699252 30.78524254 -28.06279112 30.58462204 -25.50390625 30.47265625 C-24.79298828 30.43398438 -24.08207031 30.3953125 -23.34960938 30.35546875 C-21.588982 30.26093842 -19.82772897 30.17819808 -18.06640625 30.09765625 C-17.73640625 27.78765625 -17.40640625 25.47765625 -17.06640625 23.09765625 C-16.40640625 23.09765625 -15.74640625 23.09765625 -15.06640625 23.09765625 C-15.06640625 25.73765625 -15.06640625 28.37765625 -15.06640625 31.09765625 C-12.42640625 31.09765625 -9.78640625 31.09765625 -7.06640625 31.09765625 C-7.06640625 28.78765625 -7.06640625 26.47765625 -7.06640625 24.09765625 C-6.40640625 24.09765625 -5.74640625 24.09765625 -5.06640625 24.09765625 C-4.73640625 26.07765625 -4.40640625 28.05765625 -4.06640625 30.09765625 C-1.75640625 30.42765625 0.55359375 30.75765625 2.93359375 31.09765625 C2.93359375 28.45765625 2.93359375 25.81765625 2.93359375 23.09765625 C1.28359375 22.76765625 -0.36640625 22.43765625 -2.06640625 22.09765625 C-1.40640625 21.10765625 -0.74640625 20.11765625 -0.06640625 19.09765625 C0.32373091 17.10795675 0.66562024 15.10745756 0.93359375 13.09765625 C-1.70640625 13.09765625 -4.34640625 13.09765625 -7.06640625 13.09765625 C-6.40640625 12.10765625 -5.74640625 11.11765625 -5.06640625 10.09765625 C-4.65632728 8.56991106 -4.30488084 7.02558395 -4.00390625 5.47265625 C-2.95978594 0.13987646 -2.95978594 0.13987646 0 0 Z M36.93359375 23.09765625 C36.93359375 25.73765625 36.93359375 28.37765625 36.93359375 31.09765625 C39.57359375 31.09765625 42.21359375 31.09765625 44.93359375 31.09765625 C44.93359375 28.45765625 44.93359375 25.81765625 44.93359375 23.09765625 C42.29359375 23.09765625 39.65359375 23.09765625 36.93359375 23.09765625 Z M10.93359375 33.09765625 C10.89117652 35.430604 10.89266438 37.76468192 10.93359375 40.09765625 C12.05195599 41.441704 12.05195599 41.441704 14.93359375 41.22265625 C17.81523151 41.441704 17.81523151 41.441704 18.93359375 40.09765625 C18.97452312 37.76468192 18.97601098 35.430604 18.93359375 33.09765625 C16.29359375 33.09765625 13.65359375 33.09765625 10.93359375 33.09765625 Z M21.93359375 33.09765625 C21.93359375 35.73765625 21.93359375 38.37765625 21.93359375 41.09765625 C24.2665415 41.14007348 26.60061942 41.13858562 28.93359375 41.09765625 C30.34936852 39.91341299 30.34936852 39.91341299 29.99609375 36.53515625 C29.97546875 35.40078125 29.95484375 34.26640625 29.93359375 33.09765625 C27.29359375 33.09765625 24.65359375 33.09765625 21.93359375 33.09765625 Z M31.93359375 33.09765625 C31.89117652 35.430604 31.89266438 37.76468192 31.93359375 40.09765625 C33.05195599 41.441704 33.05195599 41.441704 35.93359375 41.22265625 C38.81523151 41.441704 38.81523151 41.441704 39.93359375 40.09765625 C39.97452312 37.76468192 39.97601098 35.430604 39.93359375 33.09765625 C37.29359375 33.09765625 34.65359375 33.09765625 31.93359375 33.09765625 Z M41.93359375 33.09765625 C41.89117652 35.430604 41.89266438 37.76468192 41.93359375 40.09765625 C43.11783701 41.51343102 43.11783701 41.51343102 46.49609375 41.16015625 C48.19765625 41.12921875 48.19765625 41.12921875 49.93359375 41.09765625 C49.93359375 38.45765625 49.93359375 35.81765625 49.93359375 33.09765625 C47.29359375 33.09765625 44.65359375 33.09765625 41.93359375 33.09765625 Z M62.93359375 33.09765625 C62.89117652 35.430604 62.89266438 37.76468192 62.93359375 40.09765625 C64.05195599 41.441704 64.05195599 41.441704 66.93359375 41.22265625 C69.81523151 41.441704 69.81523151 41.441704 70.93359375 40.09765625 C70.97452312 37.76468192 70.97601098 35.430604 70.93359375 33.09765625 C68.29359375 33.09765625 65.65359375 33.09765625 62.93359375 33.09765625 Z " fill="#050505" transform="translate(205.06640625,409.90234375)"/>
<path d="M0 0 C17.82 0 35.64 0 54 0 C54 4.95 54 9.9 54 15 C51.49055695 17.50944305 50.68235913 17.2525033 47.21484375 17.25878906 C46.2204126 17.26509338 45.22598145 17.27139771 44.20141602 17.27789307 C43.12432373 17.2738446 42.04723145 17.26979614 40.9375 17.265625 C39.835271 17.26753845 38.73304199 17.2694519 37.59741211 17.27142334 C35.26383232 17.27278612 32.93024497 17.26908322 30.59667969 17.26074219 C27.01480153 17.25004421 23.43342497 17.26063458 19.8515625 17.2734375 C17.58854055 17.27211592 15.32551892 17.26955357 13.0625 17.265625 C11.98540771 17.26967346 10.90831543 17.27372192 9.79858398 17.27789307 C8.80415283 17.27158875 7.80972168 17.26528442 6.78515625 17.25878906 C5.90738525 17.25719788 5.02961426 17.25560669 4.12524414 17.25396729 C2 17 2 17 0 15 C0 10.05 0 5.1 0 0 Z " fill="#000000" transform="translate(218,371)"/>
<path d="M0 0 C0.66 0.33 1.32 0.66 2 1 C2.625 3.5625 2.625 3.5625 3 6 C8.93609666 6.89316269 14.06975197 6.97040422 20 6 C20.33 4.02 20.66 2.04 21 0 C21.66 0 22.32 0 23 0 C23 2.31 23 4.62 23 7 C24.11375 6.95875 25.2275 6.9175 26.375 6.875 C30 7 30 7 32 9 C26.97703996 10.13016601 23.02125926 9.77916092 18 9 C18 11.64 18 14.28 18 17 C16 15 16 15 15.875 11.875 C15.91625 10.92625 15.9575 9.9775 16 9 C13.36 9 10.72 9 8 9 C7.67 9.66 7.34 10.32 7 11 C6.67 10.34 6.34 9.68 6 9 C3.03 9 0.06 9 -3 9 C-3 11.64 -3 14.28 -3 17 C-3.66 17 -4.32 17 -5 17 C-5 14.36 -5 11.72 -5 9 C-6.32 9 -7.64 9 -9 9 C-9 8.34 -9 7.68 -9 7 C-6.36 6.67 -3.72 6.34 -1 6 C-0.67 4.02 -0.34 2.04 0 0 Z " fill="#0D0D0D" transform="translate(271,434)"/>
<path d="M0 0 C0.66 0 1.32 0 2 0 C2 2.64 2 5.28 2 8 C4.64 8 7.28 8 10 8 C10 5.69 10 3.38 10 1 C10.66 1 11.32 1 12 1 C12.33 2.98 12.66 4.96 13 7 C15.64 7.33 18.28 7.66 21 8 C20.67 8.66 20.34 9.32 20 10 C15.71 10 11.42 10 7 10 C7 12.31 7 14.62 7 17 C6.34 17 5.68 17 5 17 C5 14.69 5 12.38 5 10 C-2.26 10 -9.52 10 -17 10 C-16.67 9.34 -16.34 8.68 -16 8 C-13.45058627 7.68758629 -10.99638487 7.48696579 -8.4375 7.375 C-7.72658203 7.33632813 -7.01566406 7.29765625 -6.28320312 7.2578125 C-4.52257575 7.16328217 -2.76132272 7.08054183 -1 7 C-0.67 4.69 -0.34 2.38 0 0 Z " fill="#0E0E0E" transform="translate(188,433)"/>
<path d="M0 0 C0.33 0 0.66 0 1 0 C1 2.64 1 5.28 1 8 C6.94 8 12.88 8 19 8 C18.34 11.3 17.68 14.6 17 18 C16.34 17.67 15.68 17.34 15 17 C15 14.69 15 12.38 15 10 C13.54257537 9.91903197 12.08387193 9.86082226 10.625 9.8125 C9.40683594 9.76029297 9.40683594 9.76029297 8.1640625 9.70703125 C7.44992188 9.80371094 6.73578125 9.90039062 6 10 C5.01 11.485 5.01 11.485 4 13 C4 12.01 4 11.02 4 10 C1.36 10 -1.28 10 -4 10 C-4 12.31 -4 14.62 -4 17 C-4.66 17.33 -5.32 17.66 -6 18 C-6 15.36 -6 12.72 -6 10 C-6.99 9.67 -7.98 9.34 -9 9 C-9 8.67 -9 8.34 -9 8 C-5.535 7.505 -5.535 7.505 -2 7 C-1.34 4.69 -0.68 2.38 0 0 Z " fill="#0F0F0F" transform="translate(220,433)"/>
<path d="M0 0 C1.89575251 -0.02721176 3.79161979 -0.04649136 5.6875 -0.0625 C6.74324219 -0.07410156 7.79898438 -0.08570313 8.88671875 -0.09765625 C11.72410262 -0.00865425 14.2438919 0.35060162 17 1 C16.67 1.66 16.34 2.32 16 3 C13.36 2.67 10.72 2.34 8 2 C7.67 3.32 7.34 4.64 7 6 C6.67 4.68 6.34 3.36 6 2 C3.69 2 1.38 2 -1 2 C-0.67 1.34 -0.34 0.68 0 0 Z " fill="#070707" transform="translate(174,451)"/>
<path d="M0 0 C0.66 0.33 1.32 0.66 2 1 C2 3.64 2 6.28 2 9 C3.32 9.33 4.64 9.66 6 10 C3.625 10.125 3.625 10.125 1 10 C0.34 9.34 -0.32 8.68 -1 8 C-0.96712417 5.27130593 -0.43602229 2.7033382 0 0 Z " fill="#030303" transform="translate(225,442)"/>
<path d="M0 0 C2.64 0 5.28 0 8 0 C8 0.66 8 1.32 8 2 C6.68 2 5.36 2 4 2 C3.67 2.66 3.34 3.32 3 4 C3 3.34 3 2.68 3 2 C2.01 2 1.02 2 0 2 C0 1.34 0 0.68 0 0 Z " fill="#0E0E0E" transform="translate(242,441)"/>
<path d="M0 0 C0.66 0.66 1.32 1.32 2 2 C1.67 2.33 1.34 2.66 1 3 C-0.52519276 2.91062197 -2.04681929 2.75462854 -3.5625 2.5625 C-4.80193359 2.40974609 -4.80193359 2.40974609 -6.06640625 2.25390625 C-6.70449219 2.17011719 -7.34257812 2.08632813 -8 2 C-8 1.67 -8 1.34 -8 1 C-1.9453125 0.0234375 -1.9453125 0.0234375 0 0 Z " fill="#010101" transform="translate(326,382)"/>
</svg>
