<?xml version="1.0" encoding="UTF-8"?>
<svg version="1.1" xmlns="http://www.w3.org/2000/svg">
<path d="M0 0 C165 0 330 0 500 0 C500 165 500 330 500 500 C335 500 170 500 0 500 C0 335 0 170 0 0 Z " fill="#FEFEFE" transform="translate(0,0)"/>
<path d="M0 0 C2.67210425 6.20331074 3.16399546 11.41267521 2.95727539 18.12304688 C2.36123513 28.63498978 2.36123513 28.63498978 6.66796875 37.7578125 C9.83842877 40.5755276 13.42776761 42.730144 17 45 C19.5 47.42578125 19.5 47.42578125 21.5625 49.8125 C22.14128906 50.47894531 22.72007812 51.14539063 23.31640625 51.83203125 C25 54 25 54 26.58203125 57.21484375 C29.30005412 60.34561969 29.72237663 60.43181573 33.6328125 60.734375 C35.46322424 60.76886102 37.29440804 60.77301023 39.125 60.75 C55.64197977 60.82098988 55.64197977 60.82098988 62 64 C62.8170784 73.60067126 57.78444029 81.62658093 52 89 C48.40667595 92.89350345 44.98033607 95.03212094 40.0625 96.9375 C34.29907735 99.58745002 32.35083918 103.9240136 29.86352539 109.48022461 C27.40177371 114.87338179 24.43531276 118.28234362 19 121 C19.56396484 121.01981934 20.12792969 121.03963867 20.70898438 121.06005859 C23.30639574 121.15631811 25.90311103 121.26558052 28.5 121.375 C29.386875 121.4059375 30.27375 121.436875 31.1875 121.46875 C43.05389411 121.99226739 55.85173029 125.10580067 64.6640625 133.53125 C67.44979796 136.59392993 68.81672824 138.90036943 69.5 143 C68.81691583 147.09850505 67.23926074 148.48057498 64 151 C62.35 151.33 60.7 151.66 59 152 C59 193.58 59 235.16 59 278 C55 276 55 276 52 274 C52.33 274.33 52.66 274.66 53 275 C53.5775 275.639375 54.155 276.27875 54.75 276.9375 C56.81056887 279.11595061 56.81056887 279.11595061 59.2890625 279.73046875 C63.06544305 281.49894668 65.05082024 284.16434722 67.625 287.375 C68.10195313 287.9525 68.57890625 288.53 69.0703125 289.125 C71.45644661 292.02812984 73.77598953 294.96997231 76 298 C75.67 298.66 75.34 299.32 75 300 C72.87218083 297.56494843 70.7482432 295.12654203 68.625 292.6875 C68.02171875 291.99720703 67.4184375 291.30691406 66.796875 290.59570312 C66.21679688 289.92861328 65.63671875 289.26152344 65.0390625 288.57421875 C64.50490723 287.96151123 63.97075195 287.34880371 63.42041016 286.7175293 C62 285 62 285 60 282 C59.98598145 283.0058313 59.98598145 283.0058313 59.97167969 284.03198242 C59.91783404 287.08455567 59.83421505 290.13561982 59.75 293.1875 C59.73582031 294.24259766 59.72164063 295.29769531 59.70703125 296.38476562 C59.4600443 304.21425207 59.4600443 304.21425207 57.140625 308.17578125 C54.08316768 310.78131513 51.61438543 311.12505107 47.73768711 311.13422108 C46.86333187 311.13867892 45.98897662 311.14313676 45.08812577 311.14772969 C44.12685569 311.14754533 43.16558562 311.14736097 42.17518616 311.14717102 C41.15455706 311.15084771 40.13392795 311.1545244 39.0823707 311.1583125 C35.64613599 311.16936758 32.20993149 311.17319623 28.77368164 311.17700195 C26.31670536 311.18326506 23.85973002 311.18991172 21.40275574 311.19691467 C14.01942477 311.21615212 6.63610183 311.22674279 -0.74724683 311.23564246 C-4.22295858 311.24002537 -7.69866881 311.24539205 -11.17437935 311.25063133 C-22.72525052 311.26764034 -34.27612075 311.28213619 -45.82700253 311.28938007 C-48.82404011 311.29129 -51.82107768 311.29321033 -54.81811523 311.29516602 C-55.93547715 311.29589163 -55.93547715 311.29589163 -57.07541204 311.2966319 C-69.15203782 311.30493858 -81.22856476 311.33028766 -93.30514734 311.36274669 C-105.69923964 311.39578814 -118.09328164 311.41382606 -130.48741823 311.41702431 C-137.44827282 311.41919177 -144.40898312 311.42797505 -151.36979485 311.45348549 C-157.91394692 311.47741354 -164.45788543 311.48103659 -171.00208855 311.47072411 C-173.40796776 311.47022644 -175.8138594 311.47661423 -178.21969986 311.49028015 C-181.49618408 311.50785502 -184.7717193 311.50096374 -188.04820251 311.48774719 C-189.48676154 311.50420106 -189.48676154 311.50420106 -190.95438236 311.52098733 C-197.3847133 311.45806794 -197.3847133 311.45806794 -200.55948734 309.0945158 C-203.42861544 304.92278284 -203.21870105 301.20038205 -203.31640625 296.2734375 C-203.33718735 295.41062164 -203.35796844 294.54780579 -203.37937927 293.65884399 C-203.44486034 290.89764507 -203.50375298 288.13634962 -203.5625 285.375 C-203.6056866 283.50519828 -203.64930093 281.63540638 -203.69335938 279.765625 C-203.80054024 275.17718272 -203.90181175 270.58864317 -204 266 C-204.66 266.33 -205.32 266.66 -206 267 C-211.99816699 267.856881 -215.29012224 266.12927813 -219.98828125 262.69140625 C-229.35920953 254.8125481 -229.71124326 240.83655196 -230.80645752 229.4246521 C-231.40694903 221.9018437 -231.39110703 214.35459485 -231.375 206.8125 C-231.37478851 205.88813141 -231.37457703 204.96376282 -231.37435913 204.01138306 C-231.33035017 184.49288596 -229.68731676 165.32064573 -227 146 C-226.90334045 145.30070374 -226.80668091 144.60140747 -226.70709229 143.88092041 C-217.63563154 78.89831825 -217.63563154 78.89831825 -194.58984375 59.78125 C-179.96158834 49.72018746 -164.09132506 46.49670742 -146.6640625 49.6875 C-128.24519032 53.72408538 -111.70229621 62.42406651 -96.70483398 73.67480469 C-91.20134546 77.76548902 -86.95238872 79.75844241 -80 79 C-77.01570611 76.77683794 -76.0983534 75.38238331 -75.1640625 71.75 C-74.89722656 69.89375 -74.89722656 69.89375 -74.625 68 C-72.54793864 55.86434396 -67.39329905 46.0655352 -57.28076172 38.75756836 C-53.03796399 35.91202044 -49.13490728 34.29373998 -44.20068359 33.0378418 C-36.60439309 31.14694071 -36.60439309 31.14694071 -30.78125 26.265625 C-29.84503292 24.21634983 -28.9767618 22.13464148 -28.1796875 20.02734375 C-25.11379792 12.15958076 -18.87139965 7.55886797 -11.8125 3.4375 C-11.21824219 3.09041992 -10.62398437 2.74333984 -10.01171875 2.38574219 C-6.54078082 0.488789 -3.95813919 -0.40997675 0 0 Z " fill="#020202" transform="translate(317,57)"/>
<path d="M0 0 C30.7828125 -0.2475 30.7828125 -0.2475 62.1875 -0.5 C68.66785889 -0.57283203 75.14821777 -0.64566406 81.82495117 -0.72070312 C89.73693848 -0.75683594 89.73693848 -0.75683594 93.44062805 -0.7635498 C96.02915038 -0.77584204 98.61455572 -0.80097944 101.20246887 -0.84460449 C105.12114232 -0.90978633 109.03852399 -0.91125182 112.95776367 -0.90820312 C114.11081843 -0.93698799 115.2638732 -0.96577286 116.45186901 -0.99542999 C124.03015737 -0.91638012 124.03015737 -0.91638012 126.83150673 1.73054504 C129.43075531 5.72133136 130.95858946 9.18042522 130 14 C128.25 16.640625 128.25 16.640625 126 19.25 C122.40556588 23.91958345 121.00226009 26.94603262 121.53515625 32.8359375 C122.16633686 35.77437494 123.01540249 37.73188856 125 40 C129.88812984 43.09070093 135.43150578 42.58301013 141 42 C147.74446909 39.05695894 150.53089462 33.42645944 153.31640625 26.9296875 C156.77350453 17.86899409 158.16690607 9.77650098 160 0 C182.44 0 204.88 0 228 0 C228 42.57 228 85.14 228 129 C152.76 129 77.52 129 0 129 C0 86.43 0 43.86 0 0 Z " fill="#FEFEFE" transform="translate(131,221)"/>
<path d="M0 0 C1.23105469 0.00064453 2.46210938 0.00128906 3.73046875 0.00195312 C9.16171761 0.02843267 14.27426696 0.1827969 19.625 1.1875 C19.625 1.5175 19.625 1.8475 19.625 2.1875 C18.88789795 2.16131592 18.1507959 2.13513184 17.39135742 2.1081543 C-3.60665108 1.46752609 -23.09364463 3.27118828 -43.375 9.1875 C-42.05781982 9.20208252 -40.74063965 9.21666504 -39.38354492 9.23168945 C-34.50240762 9.28960713 -29.62173482 9.36684036 -24.7409668 9.44995117 C-22.62743664 9.48323128 -20.51381694 9.51125353 -18.40014648 9.53393555 C-15.36403194 9.56742472 -12.32874025 9.61973764 -9.29296875 9.67578125 C-8.34600632 9.68217117 -7.39904388 9.6885611 -6.42338562 9.69514465 C-5.54269913 9.71493881 -4.66201263 9.73473297 -3.75463867 9.75512695 C-2.97964523 9.76623001 -2.20465179 9.77733307 -1.40617371 9.78877258 C0.625 10.1875 0.625 10.1875 2.37446594 11.31755066 C4.2130898 14.06688279 4.00639841 16.25056939 4.01318359 19.5390625 C4.02264008 20.85052246 4.03209656 22.16198242 4.0418396 23.51318359 C4.03646992 24.94629213 4.03031698 26.37939792 4.0234375 27.8125 C4.02545831 29.28076319 4.02836981 30.7490254 4.03213501 32.21728516 C4.03655806 35.29404255 4.0301282 38.37053861 4.01611328 41.44726562 C3.99902107 45.39190471 4.0088624 49.33593148 4.02683067 53.2805481 C4.03766922 56.31230283 4.03422192 59.34391229 4.0264473 62.37567139 C4.02444547 63.8301399 4.02690398 65.28462158 4.03388596 66.73907471 C4.04150067 68.77135976 4.02783742 70.80369102 4.01318359 72.8359375 C4.01079681 73.99270996 4.00841003 75.14948242 4.00595093 76.34130859 C3.625 79.1875 3.625 79.1875 2.47838783 80.84157753 C-0.17845949 82.77096891 -2.14454621 82.5650915 -5.41015625 82.56845093 C-6.67206787 82.5769104 -7.93397949 82.58536987 -9.23413086 82.59408569 C-10.63525519 82.58825259 -12.03637825 82.58210808 -13.4375 82.57568359 C-14.91089263 82.57974802 -16.38428222 82.58508917 -17.85766602 82.59161377 C-21.86177012 82.60530867 -25.86564274 82.59997985 -29.86975098 82.59047651 C-34.05640292 82.58289113 -38.24303479 82.5899224 -42.4296875 82.59463501 C-49.46097377 82.60009584 -56.49216557 82.59289238 -63.5234375 82.57861328 C-71.65724254 82.5622861 -79.79082201 82.56757438 -87.92462158 82.5840925 C-94.90303481 82.59769806 -101.88138005 82.59963159 -108.85980225 82.59177649 C-113.02994485 82.58709484 -117.19998136 82.58648857 -121.37011719 82.59638596 C-125.29029929 82.60503987 -129.21019002 82.59906282 -133.13034058 82.58170319 C-134.5707043 82.57772987 -136.01109247 82.57888681 -137.45144653 82.58549118 C-139.41423681 82.59366258 -141.37708056 82.5816087 -143.33984375 82.56845093 C-144.98907837 82.56675431 -144.98907837 82.56675431 -146.67163086 82.56502342 C-149.375 82.1875 -149.375 82.1875 -151.2288084 80.84157753 C-153.02754216 78.24581161 -152.74901294 75.95745525 -152.74731445 72.8359375 C-152.75354324 71.52447754 -152.75977203 70.21301758 -152.76618958 68.86181641 C-152.75750151 67.42870708 -152.74818353 65.99560145 -152.73828125 64.5625 C-152.7377626 63.09423829 -152.73828049 61.62597587 -152.73979187 60.15771484 C-152.73970216 57.0809492 -152.72927573 54.00444565 -152.71118164 50.92773438 C-152.68849433 46.98319498 -152.68795044 43.03903858 -152.69469929 39.0944519 C-152.69804023 36.06270949 -152.69140685 33.03105445 -152.68157005 29.99932861 C-152.67771991 28.54486549 -152.67656907 27.09039265 -152.6781559 25.63592529 C-152.6785266 23.60361553 -152.66442914 21.57131862 -152.6496582 19.5390625 C-152.64505081 18.38229004 -152.64044342 17.22551758 -152.63569641 16.03369141 C-152.375 13.1875 -152.375 13.1875 -150.375 10.1875 C-147.29487386 9.90148051 -144.41677078 9.80960172 -141.33544922 9.84692383 C-140.39881439 9.84648575 -139.46217957 9.84604767 -138.49716187 9.84559631 C-135.39112741 9.84769181 -132.28562804 9.87105878 -129.1796875 9.89453125 C-127.03020523 9.90012449 -124.88071914 9.90439587 -122.73123169 9.90739441 C-117.06595351 9.91886453 -111.40090502 9.9483504 -105.73571777 9.98150635 C-99.95795805 10.01216054 -94.18016131 10.02588979 -88.40234375 10.04101562 C-77.05979476 10.07321798 -65.71741646 10.1244405 -54.375 10.1875 C-55.365 10.8475 -56.355 11.5075 -57.375 12.1875 C-53.91 11.6925 -53.91 11.6925 -50.375 11.1875 C-50.045 10.1975 -49.715 9.2075 -49.375 8.1875 C-47.34057617 7.32788086 -47.34057617 7.32788086 -44.66796875 6.65234375 C-43.68763672 6.40033203 -42.70730469 6.14832031 -41.69726562 5.88867188 C-40.66279297 5.63666016 -39.62832031 5.38464844 -38.5625 5.125 C-37.57056641 4.86912109 -36.57863281 4.61324219 -35.55664062 4.34960938 C-23.58810948 1.33226743 -12.3552302 -0.12526647 0 0 Z " fill="#2B2B2B" transform="translate(320.375,382.8125)"/>
<path d="M0 0 C1.23105469 0.00064453 2.46210938 0.00128906 3.73046875 0.00195312 C9.16171761 0.02843267 14.27426696 0.1827969 19.625 1.1875 C19.625 1.5175 19.625 1.8475 19.625 2.1875 C18.88789795 2.16131592 18.1507959 2.13513184 17.39135742 2.1081543 C-3.60665108 1.46752609 -23.09364463 3.27118828 -43.375 9.1875 C-42.05781982 9.20208252 -40.74063965 9.21666504 -39.38354492 9.23168945 C-34.50240762 9.28960713 -29.62173482 9.36684036 -24.7409668 9.44995117 C-22.62743664 9.48323128 -20.51381694 9.51125353 -18.40014648 9.53393555 C-15.36403194 9.56742472 -12.32874025 9.61973764 -9.29296875 9.67578125 C-8.34600632 9.68217117 -7.39904388 9.6885611 -6.42338562 9.69514465 C-5.54269913 9.71493881 -4.66201263 9.73473297 -3.75463867 9.75512695 C-2.97964523 9.76623001 -2.20465179 9.77733307 -1.40617371 9.78877258 C0.625 10.1875 0.625 10.1875 2.37446594 11.31755066 C4.2130898 14.06688279 4.00639841 16.25056939 4.01318359 19.5390625 C4.02264008 20.85052246 4.03209656 22.16198242 4.0418396 23.51318359 C4.03646992 24.94629213 4.03031698 26.37939792 4.0234375 27.8125 C4.02545831 29.28076319 4.02836981 30.7490254 4.03213501 32.21728516 C4.03655806 35.29404255 4.0301282 38.37053861 4.01611328 41.44726562 C3.99902107 45.39190471 4.0088624 49.33593148 4.02683067 53.2805481 C4.03766922 56.31230283 4.03422192 59.34391229 4.0264473 62.37567139 C4.02444547 63.8301399 4.02690398 65.28462158 4.03388596 66.73907471 C4.04150067 68.77135976 4.02783742 70.80369102 4.01318359 72.8359375 C4.01079681 73.99270996 4.00841003 75.14948242 4.00595093 76.34130859 C3.625 79.1875 3.625 79.1875 2.47838783 80.84157753 C-0.17845949 82.77096891 -2.14454621 82.5650915 -5.41015625 82.56845093 C-6.67206787 82.5769104 -7.93397949 82.58536987 -9.23413086 82.59408569 C-10.63525519 82.58825259 -12.03637825 82.58210808 -13.4375 82.57568359 C-14.91089263 82.57974802 -16.38428222 82.58508917 -17.85766602 82.59161377 C-21.86177012 82.60530867 -25.86564274 82.59997985 -29.86975098 82.59047651 C-34.05640292 82.58289113 -38.24303479 82.5899224 -42.4296875 82.59463501 C-49.46097377 82.60009584 -56.49216557 82.59289238 -63.5234375 82.57861328 C-71.65724254 82.5622861 -79.79082201 82.56757438 -87.92462158 82.5840925 C-94.90303481 82.59769806 -101.88138005 82.59963159 -108.85980225 82.59177649 C-113.02994485 82.58709484 -117.19998136 82.58648857 -121.37011719 82.59638596 C-125.29029929 82.60503987 -129.21019002 82.59906282 -133.13034058 82.58170319 C-134.5707043 82.57772987 -136.01109247 82.57888681 -137.45144653 82.58549118 C-139.41423681 82.59366258 -141.37708056 82.5816087 -143.33984375 82.56845093 C-144.98907837 82.56675431 -144.98907837 82.56675431 -146.67163086 82.56502342 C-149.375 82.1875 -149.375 82.1875 -151.2288084 80.84157753 C-153.02754216 78.24581161 -152.74901294 75.95745525 -152.74731445 72.8359375 C-152.75354324 71.52447754 -152.75977203 70.21301758 -152.76618958 68.86181641 C-152.75750151 67.42870708 -152.74818353 65.99560145 -152.73828125 64.5625 C-152.7377626 63.09423829 -152.73828049 61.62597587 -152.73979187 60.15771484 C-152.73970216 57.0809492 -152.72927573 54.00444565 -152.71118164 50.92773438 C-152.68849433 46.98319498 -152.68795044 43.03903858 -152.69469929 39.0944519 C-152.69804023 36.06270949 -152.69140685 33.03105445 -152.68157005 29.99932861 C-152.67771991 28.54486549 -152.67656907 27.09039265 -152.6781559 25.63592529 C-152.6785266 23.60361553 -152.66442914 21.57131862 -152.6496582 19.5390625 C-152.64505081 18.38229004 -152.64044342 17.22551758 -152.63569641 16.03369141 C-152.375 13.1875 -152.375 13.1875 -150.375 10.1875 C-147.29487386 9.90148051 -144.41677078 9.80960172 -141.33544922 9.84692383 C-140.39881439 9.84648575 -139.46217957 9.84604767 -138.49716187 9.84559631 C-135.39112741 9.84769181 -132.28562804 9.87105878 -129.1796875 9.89453125 C-127.03020523 9.90012449 -124.88071914 9.90439587 -122.73123169 9.90739441 C-117.06595351 9.91886453 -111.40090502 9.9483504 -105.73571777 9.98150635 C-99.95795805 10.01216054 -94.18016131 10.02588979 -88.40234375 10.04101562 C-77.05979476 10.07321798 -65.71741646 10.1244405 -54.375 10.1875 C-55.365 10.8475 -56.355 11.5075 -57.375 12.1875 C-53.91 11.6925 -53.91 11.6925 -50.375 11.1875 C-50.045 10.1975 -49.715 9.2075 -49.375 8.1875 C-47.34057617 7.32788086 -47.34057617 7.32788086 -44.66796875 6.65234375 C-43.68763672 6.40033203 -42.70730469 6.14832031 -41.69726562 5.88867188 C-40.66279297 5.63666016 -39.62832031 5.38464844 -38.5625 5.125 C-37.57056641 4.86912109 -36.57863281 4.61324219 -35.55664062 4.34960938 C-23.58810948 1.33226743 -12.3552302 -0.12526647 0 0 Z M-148.375 23.1875 C-148.375 25.1675 -148.375 27.1475 -148.375 29.1875 C-148.705 29.5175 -149.035 29.8475 -149.375 30.1875 C-149.54166667 33.6875 -149.54166667 33.6875 -149.375 37.1875 C-148.14322777 38.64909932 -148.14322777 38.64909932 -144.41015625 38.28515625 C-142.7525762 38.27847785 -141.09501127 38.26651161 -139.4375 38.25 C-138.60025391 38.24548828 -137.76300781 38.24097656 -136.90039062 38.23632812 C-135.34642135 38.22757689 -133.7924614 38.21678417 -132.23852539 38.20336914 C-129.61728878 38.18104759 -126.99638006 38.1875 -124.375 38.1875 C-125.375 39.1875 -125.375 39.1875 -127.22265625 39.28515625 C-129.2734375 39.25260417 -131.32421875 39.22005208 -133.375 39.1875 C-133.375 42.1575 -133.375 45.1275 -133.375 48.1875 C-132.385 48.5175 -131.395 48.8475 -130.375 49.1875 C-136.315 49.5175 -142.255 49.8475 -148.375 50.1875 C-148.33542231 56.06633003 -148.33542231 56.06633003 -148.28491211 61.94506836 C-148.28241455 62.67346924 -148.27991699 63.40187012 -148.27734375 64.15234375 C-148.27210693 64.9012085 -148.26687012 65.65007324 -148.26147461 66.42163086 C-148.375 68.1875 -148.375 68.1875 -149.375 69.1875 C-149.44705511 70.87358966 -149.45886068 72.56250659 -149.4375 74.25 C-149.42847656 75.16910156 -149.41945312 76.08820313 -149.41015625 77.03515625 C-149.39855469 77.74542969 -149.38695312 78.45570313 -149.375 79.1875 C-148.80990723 79.1875 -148.24481445 79.1875 -147.66259766 79.1875 C-138.23339844 79.1875 -128.80419922 79.1875 -119.375 79.1875 C-119.375 75.5575 -119.375 71.9275 -119.375 68.1875 C-104.04166667 68.1875 -88.70833333 68.1875 -73.375 68.1875 C-88.72 68.6825 -88.72 68.6825 -104.375 69.1875 C-104.375 72.4875 -104.375 75.7875 -104.375 79.1875 C-88.205 79.1875 -72.035 79.1875 -55.375 79.1875 C-55.045 76.5475 -54.715 73.9075 -54.375 71.1875 C-54.045 71.1875 -53.715 71.1875 -53.375 71.1875 C-52.88 75.1475 -52.88 75.1475 -52.375 79.1875 C-49.075 79.1875 -45.775 79.1875 -42.375 79.1875 C-42.375 75.8875 -42.375 72.5875 -42.375 69.1875 C-41.715 69.1875 -41.055 69.1875 -40.375 69.1875 C-40.375 72.4875 -40.375 75.7875 -40.375 79.1875 C-30.475 79.1875 -20.575 79.1875 -10.375 79.1875 C-10.375 75.8875 -10.375 72.5875 -10.375 69.1875 C-8.910625 69.043125 -7.44625 68.89875 -5.9375 68.75 C-2.85653302 68.65254174 -2.85653302 68.65254174 -0.375 67.1875 C-0.20833333 63.6875 -0.20833333 63.6875 -0.375 60.1875 C-2.35716903 58.20533097 -6.20820059 58.77699076 -8.9375 58.625 C-11.391875 58.480625 -13.84625 58.33625 -16.375 58.1875 C-11.095 58.1875 -5.815 58.1875 -0.375 58.1875 C-0.4059375 55.7434375 -0.4059375 55.7434375 -0.4375 53.25 C-0.45886068 51.56250659 -0.44705511 49.87358966 -0.375 48.1875 C-0.045 47.8575 0.285 47.5275 0.625 47.1875 C0.79166667 43.6875 0.79166667 43.6875 0.625 40.1875 C-1.27385096 38.28864904 -3.94747903 39.06382494 -6.46484375 39.0546875 C-8.46134367 39.07063139 -8.46134367 39.07063139 -10.375 40.1875 C-10.375 39.5275 -10.375 38.8675 -10.375 38.1875 C-7.075 38.1875 -3.775 38.1875 -0.375 38.1875 C-0.375 33.2375 -0.375 28.2875 -0.375 23.1875 C-13.905 23.1875 -27.435 23.1875 -41.375 23.1875 C-41.375 24.8375 -41.375 26.4875 -41.375 28.1875 C-42.695 28.8475 -44.015 29.5075 -45.375 30.1875 C-45.41741723 32.52044775 -45.41592937 34.85452567 -45.375 37.1875 C-44.35362121 38.4377285 -44.35362121 38.4377285 -42.1953125 38.25 C-40.40364303 38.20845404 -38.61197634 38.16678808 -36.8203125 38.125 C-34.375 38.1875 -34.375 38.1875 -31.375 39.1875 C-34.70833333 39.1875 -38.04166667 39.1875 -41.375 39.1875 C-42.42880859 39.20490234 -42.42880859 39.20490234 -43.50390625 39.22265625 C-44.30699219 39.23167969 -45.11007812 39.24070312 -45.9375 39.25 C-46.74316406 39.26160156 -47.54882812 39.27320313 -48.37890625 39.28515625 C-50.375 39.1875 -50.375 39.1875 -51.375 38.1875 C-49.725 38.1875 -48.075 38.1875 -46.375 38.1875 C-46.375 35.2175 -46.375 32.2475 -46.375 29.1875 C-45.385 28.8575 -44.395 28.5275 -43.375 28.1875 C-43.375 26.5375 -43.375 24.8875 -43.375 23.1875 C-53.275 23.1875 -63.175 23.1875 -73.375 23.1875 C-73.375 24.8375 -73.375 26.4875 -73.375 28.1875 C-71.065 28.1875 -68.755 28.1875 -66.375 28.1875 C-67.375 29.1875 -67.375 29.1875 -69.44140625 29.28515625 C-70.26511719 29.27355469 -71.08882813 29.26195312 -71.9375 29.25 C-72.76378906 29.24097656 -73.59007812 29.23195313 -74.44140625 29.22265625 C-75.07949219 29.21105469 -75.71757812 29.19945312 -76.375 29.1875 C-76.045 28.8575 -75.715 28.5275 -75.375 28.1875 C-75.375 26.5375 -75.375 24.8875 -75.375 23.1875 C-81.975 23.1875 -88.575 23.1875 -95.375 23.1875 C-94.88 25.6625 -94.88 25.6625 -94.375 28.1875 C-95.365 28.8475 -96.355 29.5075 -97.375 30.1875 C-97.70838596 33.72937831 -97.70838596 33.72937831 -97.375 37.1875 C-96.35362121 38.4377285 -96.35362121 38.4377285 -94.1953125 38.25 C-92.40364303 38.20845404 -90.61197634 38.16678808 -88.8203125 38.125 C-86.375 38.1875 -86.375 38.1875 -83.375 39.1875 C-93.625 39.1875 -93.625 39.1875 -98.375 38.1875 C-98.375 35.2175 -98.375 32.2475 -98.375 29.1875 C-101.015 28.8575 -103.655 28.5275 -106.375 28.1875 C-103.075 27.8575 -99.775 27.5275 -96.375 27.1875 C-96.375 25.8675 -96.375 24.5475 -96.375 23.1875 C-113.535 23.1875 -130.695 23.1875 -148.375 23.1875 Z M-103.375 48.1875 C-100.075 48.1875 -96.775 48.1875 -93.375 48.1875 C-93.375 48.5175 -93.375 48.8475 -93.375 49.1875 C-99.4296875 50.1640625 -99.4296875 50.1640625 -101.375 50.1875 C-102.035 49.5275 -102.695 48.8675 -103.375 48.1875 Z M-51.375 48.1875 C-48.075 48.1875 -44.775 48.1875 -41.375 48.1875 C-41.375 48.5175 -41.375 48.8475 -41.375 49.1875 C-47.4296875 50.1640625 -47.4296875 50.1640625 -49.375 50.1875 C-50.035 49.5275 -50.695 48.8675 -51.375 48.1875 Z " fill="#0C0C0C" transform="translate(320.375,382.8125)"/>
<path d="M0 0 C3.24321485 2.26270804 5.2695897 4.19688961 6.6875 7.875 C7.25768588 12.54923779 7.19968546 17.17222519 7.125 21.875 C7.13208984 23.133125 7.13917969 24.39125 7.14648438 25.6875 C7.10320146 31.97351108 6.97995716 36.36140135 3.6875 41.875 C-0.81150056 45.45599201 -4.86243613 45.43373466 -10.42578125 45.296875 C-14.84845037 44.65053093 -16.4125871 43.23279389 -19.3125 39.875 C-22.67688579 34.56979054 -21.68137718 28.05546924 -21.6875 22 C-21.71199219 20.73285156 -21.73648437 19.46570313 -21.76171875 18.16015625 C-21.7981304 6.61766283 -21.7981304 6.61766283 -17.3125 1.875 C-12.21400004 -2.49514282 -6.06408707 -2.05950127 0 0 Z " fill="#030303" transform="translate(363.3125,408.125)"/>
<path d="M0 0 C17.82 0 35.64 0 54 0 C54 4.29 54 8.58 54 13 C49.49885845 16.37585616 49.49885845 16.37585616 45.27905273 16.38818359 C44.34806259 16.39764008 43.41707245 16.40709656 42.45787048 16.4168396 C41.45985916 16.41076691 40.46184784 16.40469421 39.43359375 16.3984375 C37.8879348 16.40274277 37.8879348 16.40274277 36.31105042 16.40713501 C34.13485158 16.40917488 31.95863438 16.40365045 29.7824707 16.39111328 C26.44636201 16.37504269 23.11146189 16.39097353 19.77539062 16.41015625 C17.66145565 16.40817413 15.54752144 16.40433109 13.43359375 16.3984375 C11.93354042 16.40754654 11.93354042 16.40754654 10.40318298 16.4168396 C9.475345 16.40738312 8.54750702 16.39792664 7.59155273 16.38818359 C6.36721779 16.38460342 6.36721779 16.38460342 5.1181488 16.38095093 C3 16 3 16 0 13 C0 8.71 0 4.42 0 0 Z " fill="#010101" transform="translate(218,372)"/>
<path d="M0 0 C6.6 0 13.2 0 20 0 C20 1.65 20 3.3 20 5 C19.67 5.33 19.34 5.66 19 6 C20.47906892 6.02689216 21.95827483 6.04634621 23.4375 6.0625 C24.67306641 6.07990234 24.67306641 6.07990234 25.93359375 6.09765625 C27.99163938 6.23267348 27.99163938 6.23267348 29 5 C26.69 5 24.38 5 22 5 C22 3.35 22 1.7 22 0 C31.9 0 41.8 0 52 0 C52 1.65 52 3.3 52 5 C51.01 5.33 50.02 5.66 49 6 C49 8.97 49 11.94 49 15 C45.33333333 15 41.66666667 15 38 15 C36.95457031 15.16757812 35.90914063 15.33515625 34.83203125 15.5078125 C26.20580531 16.8679011 18.96463428 16.94894036 10.3046875 15.51171875 C6.46226125 14.91673313 2.87454537 14.92250909 -1 15 C-2 14 -2 14 -2.25 10.5625 C-2.1675 9.386875 -2.085 8.21125 -2 7 C-1.01 6.34 -0.02 5.68 1 5 C0.67 3.35 0.34 1.7 0 0 Z " fill="#1B1B1B" transform="translate(225,406)"/>
<path d="M0 0 C5.94 0 11.88 0 18 0 C18 2.64 18 5.28 18 8 C20.64 8 23.28 8 26 8 C25.01 8.33 24.02 8.66 23 9 C23 11.97 23 14.94 23 18 C24.98 18 26.96 18 29 18 C29 21.63 29 25.26 29 29 C19 29 9 29 -1 29 C-1.02688151 27.35425434 -1.04634123 25.70838587 -1.0625 24.0625 C-1.07410156 23.14597656 -1.08570313 22.22945313 -1.09765625 21.28515625 C-1 19 -1 19 0 18 C0.08631874 16.65732587 0.10706473 15.31025678 0.09765625 13.96484375 C0.09515869 13.23644287 0.09266113 12.50804199 0.09008789 11.75756836 C0.08098389 10.8269458 0.07187988 9.89632324 0.0625 8.9375 C0.041875 5.988125 0.02125 3.03875 0 0 Z " fill="#313131" transform="translate(172,433)"/>
<path d="M0 0 C17.16 0 34.32 0 52 0 C52 1.32 52 2.64 52 4 C48.7 4.33 45.4 4.66 42 5 C44.64 5.33 47.28 5.66 50 6 C50 8.97 50 11.94 50 15 C46.33333333 15 42.66666667 15 39 15 C38.36964844 15.01160156 37.73929688 15.02320313 37.08984375 15.03515625 C35.0600258 15.06094341 33.02972606 15.03221787 31 15 C30 14 30 14 29.90234375 11.93359375 C29.91394531 11.10988281 29.92554688 10.28617187 29.9375 9.4375 C29.94652344 8.61121094 29.95554688 7.78492188 29.96484375 6.93359375 C29.97644531 6.29550781 29.98804688 5.65742188 30 5 C28.76732652 6.00836062 28.76732652 6.00836062 28.90234375 8.06640625 C28.91394531 8.89011719 28.92554688 9.71382813 28.9375 10.5625 C28.94652344 11.38878906 28.95554688 12.21507812 28.96484375 13.06640625 C28.97644531 13.70449219 28.98804688 14.34257812 29 15 C25.33333333 15 21.66666667 15 18 15 C16.63411384 15.01163142 15.26822854 15.02336465 13.90234375 15.03515625 C12.24739698 15.04447614 10.59244899 15.05358188 8.9375 15.0625 C7.67583008 15.07506836 7.67583008 15.07506836 6.38867188 15.08789062 C4.25893036 15.09647137 2.12911307 15.05244121 0 15 C-1 14 -1 14 -1.125 10.5625 C-1 7 -1 7 0 5 C0 3.35 0 1.7 0 0 Z " fill="#383838" transform="translate(172,406)"/>
<path d="M0 0 C16.17 0 32.34 0 49 0 C49 2.97 49 5.94 49 9 C32.83 9 16.66 9 0 9 C0 6.03 0 3.06 0 0 Z " fill="#FEFEFE" transform="translate(216,453)"/>
<path d="M0 0 C9.9 0 19.8 0 30 0 C30 1.65 30 3.3 30 5 C28.68 5.33 27.36 5.66 26 6 C26 8.97 26 11.94 26 15 C22.33333333 15 18.66666667 15 15 15 C13.60155845 15.01122483 12.20312124 15.02299729 10.8046875 15.03515625 C9.16145932 15.04444752 7.5182301 15.05355551 5.875 15.0625 C5.03839844 15.07087891 4.20179688 15.07925781 3.33984375 15.08789062 C1.22637678 15.09645411 -0.88716799 15.05250577 -3 15 C-4 14 -4 14 -4.0625 10.4375 C-4.041875 9.303125 -4.02125 8.16875 -4 7 C-2.68 6.34 -1.36 5.68 0 5 C0 3.35 0 1.7 0 0 Z " fill="#2A2A2A" transform="translate(279,406)"/>
<path d="M0 0 C0.33 0 0.66 0 1 0 C1 2.97 1 5.94 1 9 C1.71027344 8.98839844 2.42054688 8.97679687 3.15234375 8.96484375 C4.07144531 8.95582031 4.99054688 8.94679688 5.9375 8.9375 C6.85402344 8.92589844 7.77054687 8.91429687 8.71484375 8.90234375 C11 9 11 9 12 10 C12 13.3 12 16.6 12 20 C2.1 20 -7.8 20 -18 20 C-18 16.7 -18 13.4 -18 10 C-12.11840613 8.52960153 -7.05503233 7.77981701 -1 8 C-0.67 5.36 -0.34 2.72 0 0 Z " fill="#171717" transform="translate(298,442)"/>
<path d="M0 0 C6.6 0 13.2 0 20 0 C20 1.65 20 3.3 20 5 C19.34 5 18.68 5 18 5 C18.01160156 5.63808594 18.02320313 6.27617187 18.03515625 6.93359375 C18.04417969 7.75988281 18.05320313 8.58617187 18.0625 9.4375 C18.07410156 10.26121094 18.08570313 11.08492188 18.09765625 11.93359375 C18 14 18 14 17 15 C15.66956375 15.0983721 14.33406656 15.13078592 13 15.1328125 C12.195625 15.13410156 11.39125 15.13539063 10.5625 15.13671875 C9.716875 15.13285156 8.87125 15.12898438 8 15.125 C7.154375 15.12886719 6.30875 15.13273437 5.4375 15.13671875 C4.633125 15.13542969 3.82875 15.13414062 3 15.1328125 C2.2575 15.13168457 1.515 15.13055664 0.75 15.12939453 C-1 15 -1 15 -2 14 C-2.25 10.5625 -2.25 10.5625 -2 7 C-1.01 6.34 -0.02 5.68 1 5 C0.67 3.35 0.34 1.7 0 0 Z " fill="#2B2B2B" transform="translate(225,406)"/>
<path d="M0 0 C6.93 0 13.86 0 21 0 C21 2.97 21 5.94 21 9 C14.07 9 7.14 9 0 9 C0 6.03 0 3.06 0 0 Z " fill="#F6F6F6" transform="translate(172,442)"/>
<path d="M0 0 C1.27423828 -0.00193359 1.27423828 -0.00193359 2.57421875 -0.00390625 C3.91419922 0.00189453 3.91419922 0.00189453 5.28125 0.0078125 C6.17457031 0.00394531 7.06789063 0.00007813 7.98828125 -0.00390625 C8.83777344 -0.00261719 9.68726563 -0.00132812 10.5625 0 C11.34689453 0.00112793 12.13128906 0.00225586 12.93945312 0.00341797 C14.78125 0.1328125 14.78125 0.1328125 15.78125 1.1328125 C15.90625 4.6328125 15.90625 4.6328125 15.78125 8.1328125 C14.78125 9.1328125 14.78125 9.1328125 12.83178711 9.24633789 C11.9991333 9.24110107 11.16647949 9.23586426 10.30859375 9.23046875 C9.40947266 9.22724609 8.51035156 9.22402344 7.58398438 9.22070312 C6.63845703 9.21232422 5.69292969 9.20394531 4.71875 9.1953125 C3.76935547 9.19080078 2.81996094 9.18628906 1.84179688 9.18164062 C-0.51178065 9.1698136 -2.86523477 9.15333275 -5.21875 9.1328125 C-5.31640625 2.98046875 -5.31640625 2.98046875 -5.21875 1.1328125 C-3.66268249 -0.42325501 -2.15917629 0.00310481 0 0 Z " fill="#F5F5F5" transform="translate(304.21875,441.8671875)"/>
<path d="M0 0 C5.28 0 10.56 0 16 0 C16 2.64 16 5.28 16 8 C10.72 8 5.44 8 0 8 C0 5.36 0 2.72 0 0 Z " fill="#FDFDFD" transform="translate(304,433)"/>
<path d="M0 0 C5.28 0 10.56 0 16 0 C16 2.64 16 5.28 16 8 C10.72 8 5.44 8 0 8 C0 5.36 0 2.72 0 0 Z " fill="#FEFEFE" transform="translate(172,433)"/>
<path d="M0 0 C4.62 0 9.24 0 14 0 C14 2.97 14 5.94 14 9 C9.38 9 4.76 9 0 9 C0 6.03 0 3.06 0 0 Z " fill="#EEEEEE" transform="translate(306,412)"/>
<path d="M0 0 C4.29 0 8.58 0 13 0 C13 2.97 13 5.94 13 9 C8.71 9 4.42 9 0 9 C0 6.03 0 3.06 0 0 Z " fill="#F6F6F6" transform="translate(172,422)"/>
<path d="M0 0 C0.33 0 0.66 0 1 0 C1 2.97 1 5.94 1 9 C3.97 9 6.94 9 10 9 C10 6.03 10 3.06 10 0 C10.33 0 10.66 0 11 0 C11 2.97 11 5.94 11 9 C15.455 8.505 15.455 8.505 20 8 C20.33 5.36 20.66 2.72 21 0 C21.33 0 21.66 0 22 0 C22 2.97 22 5.94 22 9 C24.97 9 27.94 9 31 9 C31 6.03 31 3.06 31 0 C31.33 0 31.66 0 32 0 C32 2.97 32 5.94 32 9 C34.64 9 37.28 9 40 9 C40 9.33 40 9.66 40 10 C23.83 10.33 7.66 10.66 -9 11 C-9.33 13.31 -9.66 15.62 -10 18 C-10.33 18 -10.66 18 -11 18 C-11 14.7 -11 11.4 -11 8 C-7.7 8 -4.4 8 -1 8 C-0.67 5.36 -0.34 2.72 0 0 Z " fill="#020202" transform="translate(225,442)"/>
<path d="M0 0 C3.63 0 7.26 0 11 0 C11.09765625 6.15234375 11.09765625 6.15234375 11 8 C10 9 10 9 7.71484375 9.09765625 C6.34005859 9.08025391 6.34005859 9.08025391 4.9375 9.0625 C4.01839844 9.05347656 3.09929687 9.04445313 2.15234375 9.03515625 C1.44207031 9.02355469 0.73179687 9.01195312 0 9 C0 6.03 0 3.06 0 0 Z " fill="#F3F3F3" transform="translate(203,453)"/>
<path d="M0 0 C2.97 0 5.94 0 9 0 C9 3.3 9 6.6 9 10 C6.03 10 3.06 10 0 10 C0 6.7 0 3.4 0 0 Z " fill="#E5E5E5" transform="translate(280,452)"/>
<path d="M0 0 C3.3 0 6.6 0 10 0 C10 2.97 10 5.94 10 9 C6.7 9 3.4 9 0 9 C0 6.03 0 3.06 0 0 Z " fill="#F7F7F7" transform="translate(268,453)"/>
<path d="M0 0 C2.97 0 5.94 0 9 0 C9 2.97 9 5.94 9 9 C6.03 9 3.06 9 0 9 C0 6.03 0 3.06 0 0 Z " fill="#F3F3F3" transform="translate(192,453)"/>
<path d="M0 0 C2.97 0 5.94 0 9 0 C9 2.97 9 5.94 9 9 C6.03 9 3.06 9 0 9 C0 6.03 0 3.06 0 0 Z " fill="#EFEFEF" transform="translate(171,453)"/>
<path d="M0 0 C2.97 0 5.94 0 9 0 C9 2.97 9 5.94 9 9 C6.03 9 3.06 9 0 9 C0 6.03 0 3.06 0 0 Z " fill="#F1F1F1" transform="translate(270,422)"/>
<path d="M0 0 C2.97 0 5.94 0 9 0 C9 2.97 9 5.94 9 9 C6.03 9 3.06 9 0 9 C0 6.03 0 3.06 0 0 Z " fill="#EFEFEF" transform="translate(218,422)"/>
<path d="M0 0 C2.97 0 5.94 0 9 0 C9 2.97 9 5.94 9 9 C6.03 9 3.06 9 0 9 C0 6.03 0 3.06 0 0 Z " fill="#EBEBEB" transform="translate(265,412)"/>
<path d="M0 0 C2.97 0 5.94 0 9 0 C9 2.97 9 5.94 9 9 C6.03 9 3.06 9 0 9 C0 6.03 0 3.06 0 0 Z " fill="#E9E9E9" transform="translate(213,412)"/>
<path d="M0 0 C2.97 0 5.94 0 9 0 C9 2.97 9 5.94 9 9 C6.03 9 3.06 9 0 9 C0 6.03 0 3.06 0 0 Z " fill="#EBEBEB" transform="translate(192,412)"/>
<path d="M0 0 C2.05078125 0.03255208 4.1015625 0.06510417 6.15234375 0.09765625 C6.15234375 3.06765625 6.15234375 6.03765625 6.15234375 9.09765625 C3.18234375 9.09765625 0.21234375 9.09765625 -2.84765625 9.09765625 C-2.9453125 2.9453125 -2.9453125 2.9453125 -2.84765625 1.09765625 C-1.84765625 0.09765625 -1.84765625 0.09765625 0 0 Z " fill="#F0F0F0" transform="translate(280.84765625,441.90234375)"/>
<path d="M0 0 C6.15234375 -0.09765625 6.15234375 -0.09765625 8 0 C9 1 9 1 9.09765625 2.84765625 C9.04882812 5.92382812 9.04882812 5.92382812 9 9 C6.03 9 3.06 9 0 9 C0 6.03 0 3.06 0 0 Z " fill="#EFEFEF" transform="translate(268,442)"/>
<path d="M0 0 C6.15234375 -0.09765625 6.15234375 -0.09765625 8 0 C9 1 9 1 9.09765625 2.84765625 C9.04882812 5.92382812 9.04882812 5.92382812 9 9 C6.03 9 3.06 9 0 9 C0 6.03 0 3.06 0 0 Z " fill="#F3F3F3" transform="translate(247,442)"/>
<path d="M0 0 C2.05078125 0.03255208 4.1015625 0.06510417 6.15234375 0.09765625 C6.15234375 3.06765625 6.15234375 6.03765625 6.15234375 9.09765625 C3.18234375 9.09765625 0.21234375 9.09765625 -2.84765625 9.09765625 C-2.9453125 2.9453125 -2.9453125 2.9453125 -2.84765625 1.09765625 C-1.84765625 0.09765625 -1.84765625 0.09765625 0 0 Z " fill="#F2F2F2" transform="translate(228.84765625,441.90234375)"/>
<path d="M0 0 C2.05078125 0.03255208 4.1015625 0.06510417 6.15234375 0.09765625 C6.15234375 3.06765625 6.15234375 6.03765625 6.15234375 9.09765625 C3.18234375 9.09765625 0.21234375 9.09765625 -2.84765625 9.09765625 C-2.9453125 2.9453125 -2.9453125 2.9453125 -2.84765625 1.09765625 C-1.84765625 0.09765625 -1.84765625 0.09765625 0 0 Z " fill="#EEEEEE" transform="translate(207.84765625,441.90234375)"/>
<path d="M0 0 C6.15234375 -0.09765625 6.15234375 -0.09765625 8 0 C9 1 9 1 9.09765625 2.84765625 C9.04882812 5.92382812 9.04882812 5.92382812 9 9 C6.03 9 3.06 9 0 9 C0 6.03 0 3.06 0 0 Z " fill="#F1F1F1" transform="translate(195,442)"/>
<path d="M0 0 C2.05078125 0.03255208 4.1015625 0.06510417 6.15234375 0.09765625 C6.15234375 3.06765625 6.15234375 6.03765625 6.15234375 9.09765625 C3.18234375 9.09765625 0.21234375 9.09765625 -2.84765625 9.09765625 C-2.9453125 2.9453125 -2.9453125 2.9453125 -2.84765625 1.09765625 C-1.84765625 0.09765625 -1.84765625 0.09765625 0 0 Z " fill="#F0F0F0" transform="translate(303.84765625,421.90234375)"/>
<path d="M0 0 C6.15234375 -0.09765625 6.15234375 -0.09765625 8 0 C9 1 9 1 9.09765625 2.84765625 C9.04882812 5.92382812 9.04882812 5.92382812 9 9 C6.03 9 3.06 9 0 9 C0 6.03 0 3.06 0 0 Z " fill="#EFEFEF" transform="translate(291,422)"/>
<path d="M0 0 C2.05078125 0.03255208 4.1015625 0.06510417 6.15234375 0.09765625 C6.15234375 3.06765625 6.15234375 6.03765625 6.15234375 9.09765625 C3.18234375 9.09765625 0.21234375 9.09765625 -2.84765625 9.09765625 C-2.9453125 2.9453125 -2.9453125 2.9453125 -2.84765625 1.09765625 C-1.84765625 0.09765625 -1.84765625 0.09765625 0 0 Z " fill="#ECECEC" transform="translate(282.84765625,421.90234375)"/>
<path d="M0 0 C2.05078125 0.03255208 4.1015625 0.06510417 6.15234375 0.09765625 C6.15234375 3.06765625 6.15234375 6.03765625 6.15234375 9.09765625 C3.18234375 9.09765625 0.21234375 9.09765625 -2.84765625 9.09765625 C-2.9453125 2.9453125 -2.9453125 2.9453125 -2.84765625 1.09765625 C-1.84765625 0.09765625 -1.84765625 0.09765625 0 0 Z " fill="#F2F2F2" transform="translate(251.84765625,421.90234375)"/>
<path d="M0 0 C2.05078125 0.03255208 4.1015625 0.06510417 6.15234375 0.09765625 C6.15234375 3.06765625 6.15234375 6.03765625 6.15234375 9.09765625 C3.18234375 9.09765625 0.21234375 9.09765625 -2.84765625 9.09765625 C-2.9453125 2.9453125 -2.9453125 2.9453125 -2.84765625 1.09765625 C-1.84765625 0.09765625 -1.84765625 0.09765625 0 0 Z " fill="#EEEEEE" transform="translate(230.84765625,421.90234375)"/>
<path d="M0 0 C2.05078125 0.03255208 4.1015625 0.06510417 6.15234375 0.09765625 C6.15234375 3.06765625 6.15234375 6.03765625 6.15234375 9.09765625 C3.18234375 9.09765625 0.21234375 9.09765625 -2.84765625 9.09765625 C-2.9453125 2.9453125 -2.9453125 2.9453125 -2.84765625 1.09765625 C-1.84765625 0.09765625 -1.84765625 0.09765625 0 0 Z " fill="#F3F3F3" transform="translate(199.84765625,421.90234375)"/>
<path d="M0 0 C2.97 0 5.94 0 9 0 C9 2.97 9 5.94 9 9 C2.84765625 9.09765625 2.84765625 9.09765625 1 9 C0 8 0 8 -0.09765625 6.15234375 C-0.06510417 4.1015625 -0.03255208 2.05078125 0 0 Z " fill="#EBEBEB" transform="translate(244,412)"/>
<path d="M0 0 C6.15234375 -0.09765625 6.15234375 -0.09765625 8 0 C9 1 9 1 9.125 4.5 C9 8 9 8 8 9 C5.32941149 9.14115161 2.67567762 9.04247107 0 9 C0 6.03 0 3.06 0 0 Z " fill="#F0F0F0" transform="translate(216,442)"/>
<path d="M0 0 C6.15234375 -0.09765625 6.15234375 -0.09765625 8 0 C9 1 9 1 9.125 4.5 C9 8 9 8 8 9 C5.32941149 9.14115161 2.67567762 9.04247107 0 9 C0 6.03 0 3.06 0 0 Z " fill="#EDEDED" transform="translate(312,422)"/>
<path d="M0 0 C6.15234375 -0.09765625 6.15234375 -0.09765625 8 0 C9 1 9 1 9.125 4.5 C9 8 9 8 8 9 C5.32941149 9.14115161 2.67567762 9.04247107 0 9 C0 6.03 0 3.06 0 0 Z " fill="#EFEFEF" transform="translate(239,422)"/>
<path d="M0 0 C6.15234375 -0.09765625 6.15234375 -0.09765625 8 0 C9 1 9 1 9.125 4.5 C9 8 9 8 8 9 C5.32941149 9.14115161 2.67567762 9.04247107 0 9 C0 6.03 0 3.06 0 0 Z " fill="#EEEEEE" transform="translate(187,422)"/>
<path d="M0 0 C2.05078125 0.03255208 4.1015625 0.06510417 6.15234375 0.09765625 C6.15234375 3.06765625 6.15234375 6.03765625 6.15234375 9.09765625 C0 9.1953125 0 9.1953125 -1.84765625 9.09765625 C-2.84765625 8.09765625 -2.84765625 8.09765625 -2.97265625 4.59765625 C-2.81376564 0.14871911 -2.81376564 0.14871911 0 0 Z " fill="#EBEBEB" transform="translate(298.84765625,411.90234375)"/>
<path d="M0 0 C6.15234375 -0.09765625 6.15234375 -0.09765625 8 0 C9 1 9 1 9.125 4.5 C9 8 9 8 8 9 C5.32941149 9.14115161 2.67567762 9.04247107 0 9 C0 6.03 0 3.06 0 0 Z " fill="#EBEBEB" transform="translate(286,412)"/>
<path d="M0 0 C2.05078125 0.03255208 4.1015625 0.06510417 6.15234375 0.09765625 C6.15234375 3.06765625 6.15234375 6.03765625 6.15234375 9.09765625 C0 9.1953125 0 9.1953125 -1.84765625 9.09765625 C-2.84765625 8.09765625 -2.84765625 8.09765625 -2.97265625 4.59765625 C-2.81376564 0.14871911 -2.81376564 0.14871911 0 0 Z " fill="#E8E8E8" transform="translate(277.84765625,411.90234375)"/>
<path d="M0 0 C6.15234375 -0.09765625 6.15234375 -0.09765625 8 0 C9 1 9 1 9.125 4.5 C9 8 9 8 8 9 C5.32941149 9.14115161 2.67567762 9.04247107 0 9 C0 6.03 0 3.06 0 0 Z " fill="#E9E9E9" transform="translate(234,412)"/>
<path d="M0 0 C2.05078125 0.03255208 4.1015625 0.06510417 6.15234375 0.09765625 C6.15234375 3.06765625 6.15234375 6.03765625 6.15234375 9.09765625 C0 9.1953125 0 9.1953125 -1.84765625 9.09765625 C-2.84765625 8.09765625 -2.84765625 8.09765625 -2.97265625 4.59765625 C-2.81376564 0.14871911 -2.81376564 0.14871911 0 0 Z " fill="#E9E9E9" transform="translate(225.84765625,411.90234375)"/>
<path d="M0 0 C2.05078125 0.03255208 4.1015625 0.06510417 6.15234375 0.09765625 C6.15234375 3.06765625 6.15234375 6.03765625 6.15234375 9.09765625 C0 9.1953125 0 9.1953125 -1.84765625 9.09765625 C-2.84765625 8.09765625 -2.84765625 8.09765625 -2.97265625 4.59765625 C-2.81376564 0.14871911 -2.81376564 0.14871911 0 0 Z " fill="#EBEBEB" transform="translate(173.84765625,411.90234375)"/>
<path d="M0 0 C2.64 0 5.28 0 8 0 C8 2.97 8 5.94 8 9 C5.36 9 2.72 9 0 9 C0 6.03 0 3.06 0 0 Z " fill="#F7F7F7" transform="translate(182,453)"/>
<path d="M0 0 C2.64 0 5.28 0 8 0 C8 2.97 8 5.94 8 9 C5.36 9 2.72 9 0 9 C0 6.03 0 3.06 0 0 Z " fill="#F7F7F7" transform="translate(289,442)"/>
<path d="M0 0 C2.64 0 5.28 0 8 0 C8 2.97 8 5.94 8 9 C5.36 9 2.72 9 0 9 C0 6.03 0 3.06 0 0 Z " fill="#F7F7F7" transform="translate(258,442)"/>
<path d="M0 0 C2.64 0 5.28 0 8 0 C8 2.97 8 5.94 8 9 C5.36 9 2.72 9 0 9 C0 6.03 0 3.06 0 0 Z " fill="#F7F7F7" transform="translate(237,442)"/>
<path d="M0 0 C2.97 0 5.94 0 9 0 C9 2.64 9 5.28 9 8 C6.03 8 3.06 8 0 8 C0 5.36 0 2.72 0 0 Z " fill="#F7F7F7" transform="translate(283,433)"/>
<path d="M0 0 C2.97 0 5.94 0 9 0 C9 2.64 9 5.28 9 8 C6.03 8 3.06 8 0 8 C0 5.36 0 2.72 0 0 Z " fill="#F6F6F6" transform="translate(273,433)"/>
<path d="M0 0 C2.97 0 5.94 0 9 0 C9 2.64 9 5.28 9 8 C6.03 8 3.06 8 0 8 C0 5.36 0 2.72 0 0 Z " fill="#FAFAFA" transform="translate(252,433)"/>
<path d="M0 0 C2.97 0 5.94 0 9 0 C9 2.64 9 5.28 9 8 C6.03 8 3.06 8 0 8 C0 5.36 0 2.72 0 0 Z " fill="#F9F9F9" transform="translate(231,433)"/>
<path d="M0 0 C2.97 0 5.94 0 9 0 C9 2.64 9 5.28 9 8 C6.03 8 3.06 8 0 8 C0 5.36 0 2.72 0 0 Z " fill="#F8F8F8" transform="translate(200,433)"/>
<path d="M0 0 C2.97 0 5.94 0 9 0 C9 2.64 9 5.28 9 8 C6.03 8 3.06 8 0 8 C0 5.36 0 2.72 0 0 Z " fill="#F3F3F3" transform="translate(190,433)"/>
<path d="M0 0 C2.64 0 5.28 0 8 0 C8 2.97 8 5.94 8 9 C5.36 9 2.72 9 0 9 C0 6.03 0 3.06 0 0 Z " fill="#F7F7F7" transform="translate(260,422)"/>
<path d="M0 0 C2.64 0 5.28 0 8 0 C8 2.97 8 5.94 8 9 C5.36 9 2.72 9 0 9 C0 6.03 0 3.06 0 0 Z " fill="#F7F7F7" transform="translate(208,422)"/>
<path d="M0 0 C2.64 0 5.28 0 8 0 C8 2.97 8 5.94 8 9 C5.36 9 2.72 9 0 9 C0 6.03 0 3.06 0 0 Z " fill="#F0F0F0" transform="translate(255,412)"/>
<path d="M0 0 C2.64 0 5.28 0 8 0 C8 2.97 8 5.94 8 9 C5.36 9 2.72 9 0 9 C0 6.03 0 3.06 0 0 Z " fill="#F0F0F0" transform="translate(203,412)"/>
<path d="M0 0 C2.64 0 5.28 0 8 0 C8 2.97 8 5.94 8 9 C5.36 9 2.72 9 0 9 C0 6.03 0 3.06 0 0 Z " fill="#F0F0F0" transform="translate(182,412)"/>
<path d="M0 0 C2.64 0 5.28 0 8 0 C8 2.64 8 5.28 8 8 C5.36 8 2.72 8 0 8 C0 5.36 0 2.72 0 0 Z " fill="#FFFFFF" transform="translate(294,433)"/>
<path d="M0 0 C2.64 0 5.28 0 8 0 C8 2.64 8 5.28 8 8 C5.36 8 2.72 8 0 8 C0 5.36 0 2.72 0 0 Z " fill="#FEFEFE" transform="translate(263,433)"/>
<path d="M0 0 C2.64 0 5.28 0 8 0 C8 2.64 8 5.28 8 8 C5.36 8 2.72 8 0 8 C0 5.36 0 2.72 0 0 Z " fill="#FFFFFF" transform="translate(242,433)"/>
<path d="M0 0 C2.64 0 5.28 0 8 0 C8 2.64 8 5.28 8 8 C5.36 8 2.72 8 0 8 C0 5.36 0 2.72 0 0 Z " fill="#FFFFFF" transform="translate(221,433)"/>
<path d="M0 0 C2.64 0 5.28 0 8 0 C8 2.64 8 5.28 8 8 C5.36 8 2.72 8 0 8 C0 5.36 0 2.72 0 0 Z " fill="#FEFEFE" transform="translate(211,433)"/>
<path d="M0 0 C0.33 0 0.66 0 1 0 C1.33 2.31 1.66 4.62 2 7 C3.32 7.33 4.64 7.66 6 8 C6.06058594 8.69867188 6.12117188 9.39734375 6.18359375 10.1171875 C6.30927734 11.48230469 6.30927734 11.48230469 6.4375 12.875 C6.51871094 13.77992188 6.59992188 14.68484375 6.68359375 15.6171875 C6.86989285 18.01110861 6.86989285 18.01110861 8 20 C5.36 20 2.72 20 0 20 C0 22.64 0 25.28 0 28 C-0.33 28 -0.66 28 -1 28 C-1 25.36 -1 22.72 -1 20 C-4.3 20 -7.6 20 -11 20 C-11 19.67 -11 19.34 -11 19 C-5.72 18.67 -0.44 18.34 5 18 C5 15.03 5 12.06 5 9 C3.35 9 1.7 9 0 9 C0 6.03 0 3.06 0 0 Z " fill="#545454" transform="translate(263,413)"/>
<path d="M0 0 C0.66 0 1.32 0 2 0 C2.33 3.3 2.66 6.6 3 10 C-0.3 10 -3.6 10 -7 10 C-7 12.64 -7 15.28 -7 18 C-7.33 18 -7.66 18 -8 18 C-8 15.36 -8 12.72 -8 10 C-10.64 10 -13.28 10 -16 10 C-16 9.67 -16 9.34 -16 9 C-10.63904667 7.87137825 -5.44693314 7.90311779 0 8 C0 5.36 0 2.72 0 0 Z " fill="#4A4A4A" transform="translate(237,423)"/>
<path d="M0 0 C0 3.3 0 6.6 0 10 C-0.33 10 -0.66 10 -1 10 C-1 7.36 -1 4.72 -1 2 C-3.64 2 -6.28 2 -9 2 C-9 4.64 -9 7.28 -9 10 C-9.66 10 -10.32 10 -11 10 C-11 7.36 -11 4.72 -11 2 C-13.97 2 -16.94 2 -20 2 C-20 1.67 -20 1.34 -20 1 C-13.2705236 0.11744572 -6.78843417 -0.08592955 0 0 Z " fill="#4D4D4D" transform="translate(191,451)"/>
<path d="M0 0 C0.66 0 1.32 0 2 0 C2.33 3.3 2.66 6.6 3 10 C-3.27 10 -9.54 10 -16 10 C-16 9.67 -16 9.34 -16 9 C-10.63904667 7.87137825 -5.44693314 7.90311779 0 8 C0 5.36 0 2.72 0 0 Z " fill="#3D3D3D" transform="translate(289,423)"/>
<path d="M0 0 C0.33 0 0.66 0 1 0 C1 2.64 1 5.28 1 8 C3.97851562 7.90234375 3.97851562 7.90234375 6.95703125 7.8046875 C9 8 9 8 12 10 C9.36 10 6.72 10 4 10 C4 12.64 4 15.28 4 18 C3.67 18 3.34 18 3 18 C3 15.36 3 12.72 3 10 C-0.3 10 -3.6 10 -7 10 C-7 9.67 -7 9.34 -7 9 C-5.02 8.67 -3.04 8.34 -1 8 C-0.67 5.36 -0.34 2.72 0 0 Z " fill="#606060" transform="translate(207,423)"/>
<path d="M0 0 C2.97 0 5.94 0 9 0 C9 1.32 9 2.64 9 4 C6.03 4 3.06 4 0 4 C0 2.68 0 1.36 0 0 Z " fill="#F8F8F8" transform="translate(311,458)"/>
<path d="M0 0 C2.97 0 5.94 0 9 0 C9 1.32 9 2.64 9 4 C6.03 4 3.06 4 0 4 C0 2.68 0 1.36 0 0 Z " fill="#FBFBFB" transform="translate(301,458)"/>
<path d="M0 0 C2.97 0 5.94 0 9 0 C9 1.32 9 2.64 9 4 C6.03 4 3.06 4 0 4 C0 2.68 0 1.36 0 0 Z " fill="#F3F3F3" transform="translate(291,458)"/>
<path d="M0 0 C2.97 0 5.94 0 9 0 C9 1.32 9 2.64 9 4 C6.03 4 3.06 4 0 4 C0 2.68 0 1.36 0 0 Z " fill="#F9F9F9" transform="translate(301,453)"/>
<path d="M0 0 C2.97 0 5.94 0 9 0 C9 1.32 9 2.64 9 4 C6.03 4 3.06 4 0 4 C0 2.68 0 1.36 0 0 Z " fill="#FAFAFA" transform="translate(311,406)"/>
<path d="M0 0 C2.97 0 5.94 0 9 0 C9 1.32 9 2.64 9 4 C6.03 4 3.06 4 0 4 C0 2.68 0 1.36 0 0 Z " fill="#F7F7F7" transform="translate(300,406)"/>
<path d="M0 0 C2.97 0 5.94 0 9 0 C9 1.32 9 2.64 9 4 C6.03 4 3.06 4 0 4 C0 2.68 0 1.36 0 0 Z " fill="#F7F7F7" transform="translate(279,406)"/>
<path d="M0 0 C2.97 0 5.94 0 9 0 C9 1.32 9 2.64 9 4 C6.03 4 3.06 4 0 4 C0 2.68 0 1.36 0 0 Z " fill="#FAFAFA" transform="translate(268,406)"/>
<path d="M0 0 C2.97 0 5.94 0 9 0 C9 1.32 9 2.64 9 4 C6.03 4 3.06 4 0 4 C0 2.68 0 1.36 0 0 Z " fill="#F2F2F2" transform="translate(257,406)"/>
<path d="M0 0 C2.97 0 5.94 0 9 0 C9 1.32 9 2.64 9 4 C6.03 4 3.06 4 0 4 C0 2.68 0 1.36 0 0 Z " fill="#F4F4F4" transform="translate(247,406)"/>
<path d="M0 0 C2.97 0 5.94 0 9 0 C9 1.32 9 2.64 9 4 C6.03 4 3.06 4 0 4 C0 2.68 0 1.36 0 0 Z " fill="#FBFBFB" transform="translate(236,406)"/>
<path d="M0 0 C2.97 0 5.94 0 9 0 C9 1.32 9 2.64 9 4 C6.03 4 3.06 4 0 4 C0 2.68 0 1.36 0 0 Z " fill="#F5F5F5" transform="translate(225,406)"/>
<path d="M0 0 C2.97 0 5.94 0 9 0 C9 1.32 9 2.64 9 4 C6.03 4 3.06 4 0 4 C0 2.68 0 1.36 0 0 Z " fill="#F8F8F8" transform="translate(215,406)"/>
<path d="M0 0 C2.97 0 5.94 0 9 0 C9 1.32 9 2.64 9 4 C6.03 4 3.06 4 0 4 C0 2.68 0 1.36 0 0 Z " fill="#F4F4F4" transform="translate(204,406)"/>
<path d="M0 0 C2.97 0 5.94 0 9 0 C9 1.32 9 2.64 9 4 C6.03 4 3.06 4 0 4 C0 2.68 0 1.36 0 0 Z " fill="#F2F2F2" transform="translate(183,406)"/>
<path d="M0 0 C2.97 0 5.94 0 9 0 C9 1.32 9 2.64 9 4 C6.03 4 3.06 4 0 4 C0 2.68 0 1.36 0 0 Z " fill="#F6F6F6" transform="translate(172,406)"/>
<path d="M0 0 C2.64 0 5.28 0 8 0 C8 1.32 8 2.64 8 4 C5.36 4 2.72 4 0 4 C0 2.68 0 1.36 0 0 Z " fill="#FFFFFF" transform="translate(290,406)"/>
<path d="M0 0 C2.64 0 5.28 0 8 0 C8 1.32 8 2.64 8 4 C5.36 4 2.72 4 0 4 C0 2.68 0 1.36 0 0 Z " fill="#FFFFFF" transform="translate(194,406)"/>
<path d="M0 0 C0.33 0 0.66 0 1 0 C1 2.64 1 5.28 1 8 C1.66 8 2.32 8 3 8 C3 11.3 3 14.6 3 18 C2.67 18 2.34 18 2 18 C2 15.36 2 12.72 2 10 C-0.64 10 -3.28 10 -6 10 C-6 9.67 -6 9.34 -6 9 C-4.35 9 -2.7 9 -1 9 C-0.67 6.03 -0.34 3.06 0 0 Z " fill="#424242" transform="translate(248,423)"/>
<path d="M0 0 C5.94 0.99 5.94 0.99 12 2 C12 2.33 12 2.66 12 3 C6.06 3.495 6.06 3.495 0 4 C0 2.68 0 1.36 0 0 Z " fill="#323232" transform="translate(266,450)"/>
<path d="M0 0 C0.33 1.32 0.66 2.64 1 4 C4.3 4 7.6 4 11 4 C11 4.33 11 4.66 11 5 C4.43507888 5.78441153 -1.46837378 6.10914408 -8 5 C-8 4.67 -8 4.34 -8 4 C-5.36 4 -2.72 4 0 4 C0 2.68 0 1.36 0 0 Z " fill="#3D3D3D" transform="translate(298,406)"/>
<path d="M0 0 C0.33 1.32 0.66 2.64 1 4 C4.3 4 7.6 4 11 4 C11 4.33 11 4.66 11 5 C4.43507888 5.78441153 -1.46837378 6.10914408 -8 5 C-8 4.67 -8 4.34 -8 4 C-5.36 4 -2.72 4 0 4 C0 2.68 0 1.36 0 0 Z " fill="#393939" transform="translate(266,406)"/>
<path d="M0 0 C0.33 0 0.66 0 1 0 C1.33 2.31 1.66 4.62 2 7 C2.99 7.33 3.98 7.66 5 8 C4.67 8.66 4.34 9.32 4 10 C2.35 9.67 0.7 9.34 -1 9 C-0.67 6.03 -0.34 3.06 0 0 Z " fill="#0F0F0F" transform="translate(295,413)"/>
</svg>
